<?xml version="1.0" standalone="no"?>
<!DOCTYPE svg PUBLIC "-//W3C//DTD SVG 1.1//EN" "http://www.w3.org/Graphics/SVG/1.1/DTD/svg11.dtd" >
<svg xmlns="http://www.w3.org/2000/svg" xmlns:xlink="http://www.w3.org/1999/xlink" version="1.1">
<metadata>
Created by FontForge 20170731 at Thu Apr 20 10:42:44 2023
 By Aleksey,,,
Created by Jean Baptiste Morizot, certains droits reserves (c) 2014
</metadata>
<defs>
<font id="BluuNext-BoldItalic" horiz-adv-x="1038" >
  <font-face 
    font-family="Bluu Next"
    font-weight="700"
    font-style="italic"
    font-stretch="normal"
    units-per-em="2048"
    panose-1="2 0 8 0 0 0 0 0 0 0"
    ascent="1516"
    descent="-532"
    x-height="1004"
    cap-height="1403"
    bbox="-14 -477 2007 1898"
    underline-thickness="102"
    underline-position="-307"
    unicode-range="U+000D-FB00"
  />
<missing-glyph horiz-adv-x="944" 
d="M82 0v1010h780v-1010h-780zM178 102h588v805h-588v-805zM453 465h-140l271 326h4l-94 -240h137l-271 -326h-4z" />
    <glyph glyph-name="f_f" unicode="ff" horiz-adv-x="1363" 
d="M977 893v-318q0 -205 -19.5 -351t-44 -216t-67 -183.5t-68.5 -213.5h-16l-21 854v444l-313 -16v-369q0 -205 -19.5 -351t-44 -216t-67 -183.5t-68.5 -213.5h-16l-20 854v460l-144 130h164q15 45 45 93.5t78.5 101t124.5 97.5t168 70l159 43l54 -203q127 161 336 217
l159 43l86 -321h-8q-41 63 -170 130.5t-182 67.5q-40 0 -81.5 -41t-41.5 -124q0 -76 37 -174h393l-14 -50zM410 1004h342q0 58 51 147q-67 51 -159 93t-130 42q-40 0 -81.5 -41.5t-41.5 -124.5q0 -57 19 -116z" />
    <glyph glyph-name=".notdef" horiz-adv-x="944" 
d="M82 0v1010h780v-1010h-780zM178 102h588v805h-588v-805zM453 465h-140l271 326h4l-94 -240h137l-271 -326h-4z" />
    <glyph glyph-name=".null" horiz-adv-x="0" 
 />
    <glyph glyph-name="nonmarkingreturn" horiz-adv-x="682" 
 />
    <glyph glyph-name="CR" unicode="&#xd;" horiz-adv-x="0" 
 />
    <glyph glyph-name="space" unicode=" " horiz-adv-x="409" 
 />
    <glyph glyph-name="exclam" unicode="!" horiz-adv-x="444" 
d="M170 451l-96 895l131 94l129 -94l-94 -895h-70zM381 135l-166 -188l-168 188l168 191z" />
    <glyph glyph-name="quotedbl" unicode="&#x22;" horiz-adv-x="503" 
d="M78 1440l145 -15l-76 -444l-77 6zM305 1419l146 -12l-76 -446l-78 6z" />
    <glyph glyph-name="numbersign" unicode="#" horiz-adv-x="993" 
d="M768 1245h53l-90 -366h211v-103h-237l-72 -311h254v-105h-279l-92 -360h-55l92 360h-277l-94 -360h-53l92 360h-170v105h197l71 311h-213v103h238l90 366h55l-90 -366h277zM651 776h-278l-72 -311h279z" />
    <glyph glyph-name="dollar" unicode="$" horiz-adv-x="919" 
d="M41 477h20q39 -147 123.5 -257.5t192.5 -149.5v428q-43 19 -70 32t-65.5 35t-63 42t-52 49t-43 60t-26 72.5t-10.5 88.5q0 89 34.5 161t111 121.5t186.5 59.5v110h127l-4 -108h186l86 26v-385l-14 2q-38 106 -105.5 179t-154.5 102l-15 -387q154 -65 209 -98
q153 -92 173 -229q3 -23 3 -48q0 -194 -109.5 -290.5t-301.5 -106.5l-4 -105h-78v105q-198 11 -314 63zM379 805v358q-70 -3 -114 -46.5t-44 -115.5q0 -65 41 -111t117 -85zM461 53h14q79 0 140 41.5t61 118.5q0 85 -52.5 139.5t-148.5 100.5z" />
    <glyph glyph-name="percent" unicode="%" horiz-adv-x="1466" 
d="M641 1077q0 -74 -20 -145t-58.5 -131.5t-102.5 -97.5t-143 -37q-81 0 -140.5 50.5t-87.5 127.5t-28 168q0 74 20 145t58.5 131.5t102.5 97.5t143 37q81 0 140.5 -50.5t87.5 -127.5t28 -168zM1016 1423h119l-703 -1423h-119zM322 1341q-107 0 -107 -202
q0 -106 20.5 -194.5t59 -142.5t88.5 -54q40 0 65.5 38t33 79.5t7.5 84.5q0 163 -46.5 277t-120.5 114zM1397 412q0 -74 -20 -145t-58.5 -131.5t-102.5 -98t-143 -37.5q-81 0 -140.5 50.5t-87.5 127.5t-28 168q0 74 20 145t58.5 131.5t102.5 98t143 37.5q81 0 140.5 -50.5
t87.5 -127.5t28 -168zM1077 676q-106 0 -106 -203q0 -106 20.5 -194.5t59 -142.5t88.5 -54q40 0 65.5 38t33 80t7.5 85q0 106 -20.5 194.5t-59 142.5t-88.5 54z" />
    <glyph glyph-name="ampersand" unicode="&#x26;" horiz-adv-x="1413" 
d="M1319 768l-156 -160q3 -56 -7 -117t-34 -124t-60 -122t-90 -110.5t-119.5 -90t-152 -61t-184.5 -22.5q-57 0 -114 11t-113 35.5t-99 60t-69.5 89.5t-26.5 119q0 54 14.5 103t37 85t58.5 70.5t68 57t78.5 46.5t77.5 37.5t76.5 32t64.5 27.5q-59 9 -102.5 17t-97.5 22.5
t-91.5 34t-71 46t-50.5 64.5t-17 85q0 72 45.5 144.5t130 134.5t222 101t303.5 39l71 -237l-10 -10l-278 188q-36 0 -69.5 -18.5t-63.5 -56t-48 -106t-18 -157.5q0 -115 57.5 -185.5t139.5 -70.5q64 0 105.5 10.5t100.5 36.5l27 -82q-105 0 -158 4q-288 -86 -288 -409
q0 -59 8 -107t20 -79t30.5 -53.5t36 -34.5t41 -19t40 -8.5t37.5 -1.5q99 0 194.5 52t163 133.5t102 187.5t17.5 208l-178 31l-5 10l398 131z" />
    <glyph glyph-name="quotesingle" unicode="'" horiz-adv-x="274" 
d="M76 1430l145 -13l-76 -446l-77 6z" />
    <glyph glyph-name="parenleft" unicode="(" horiz-adv-x="544" 
d="M535 1487l28 -31q-186 -199 -279.5 -410.5t-93.5 -480.5t93.5 -481.5t279.5 -409.5l-28 -30q-141 128 -208 206q-214 251 -245 587q-6 62 -6 128q0 75 8.5 145.5t20 127.5t34.5 115.5t41.5 100t52.5 91.5t55.5 79t62.5 74.5t60.5 65.5t64 63.5t59.5 59.5z" />
    <glyph glyph-name="parenright" unicode=")" horiz-adv-x="593" 
d="M31 1456l28 31q15 -16 59.5 -59.5t64 -63.5t60.5 -65.5t62.5 -74.5t55.5 -79t52.5 -91.5t41.5 -100t34.5 -115.5t20 -127.5t8.5 -145.5q0 -105 -15.5 -201t-40 -171t-62.5 -146t-75 -123t-86 -105.5t-87 -89.5t-87 -80q-4 -3 -6 -5l-28 30q186 197 279 409.5t93 481.5
t-93 480.5t-279 410.5z" />
    <glyph glyph-name="asterisk" unicode="*" horiz-adv-x="686" 
d="M274 1323l70 86l72 -82l-51 -244h-37zM131 1239l-104 -20l30 -107l228 -74l18 33zM555 1239l107 -20l-33 -107l-226 -74l-18 33zM131 803l-104 22l30 107l228 74l18 -33zM555 803l107 22l-33 107l-226 74l-18 -33zM418 725l-70 -86l-72 82l52 244h37z" />
    <glyph glyph-name="plus" unicode="+" horiz-adv-x="1085" 
d="M969 487h-369v-405h-160v405h-348v148h348v385h160v-385h369v-148z" />
    <glyph glyph-name="comma" unicode="," horiz-adv-x="464" 
d="M102 -252l-26 21q127 110 127 213q0 19 -7 36.5t-11.5 24.5t-21.5 25t-18 20l-75 64l161 174q57 -37 107.5 -94t50.5 -105q0 -190 -278 -373q-7 -4 -9 -6z" />
    <glyph glyph-name="hyphen" unicode="-" horiz-adv-x="602" 
d="M84 655h457v-155h-457v155z" />
    <glyph glyph-name="period" unicode="." horiz-adv-x="370" 
d="M352 135l-166 -188l-168 188l168 191z" />
    <glyph glyph-name="slash" unicode="/" horiz-adv-x="911" 
d="M684 1423h152l-609 -1423h-151z" />
    <glyph glyph-name="zero" unicode="0" horiz-adv-x="1148" 
d="M1044 655q0 -97 -20.5 -193t-63.5 -184.5t-104 -157t-148 -109t-188 -40.5q-128 0 -224.5 84t-144 213.5t-47.5 280.5q0 97 20.5 193t64 184.5t104 157t148 109t188.5 40.5q78 0 145.5 -31.5t116.5 -87t84 -128.5t52 -157.5t17 -173.5zM526 1141q-54 0 -91 -35.5
t-54.5 -95.5t-24 -116.5t-6.5 -121.5q0 -191 34.5 -352.5t98 -259t142.5 -97.5q48 0 84.5 39t55.5 99t28.5 119t9.5 112q0 191 -35 352.5t-99 259t-143 97.5z" />
    <glyph glyph-name="one" unicode="1" horiz-adv-x="782" 
d="M512 1243v-1108l184 -135h-592l175 135v725l-191 -74l-2 5z" />
    <glyph glyph-name="two" unicode="2" horiz-adv-x="1081" 
d="M109 0l-15 68q58 48 119.5 107t139 151t136.5 184.5t99.5 207t40.5 220.5q0 100 -57.5 162.5t-157.5 62.5q-99 0 -164.5 -75t-120.5 -224h-10v355h266q100 0 189.5 -19.5t161.5 -57.5t114.5 -100t42.5 -141q0 -69 -30 -135.5t-76.5 -119t-109.5 -108.5t-121.5 -101
t-120.5 -99t-99 -100l4 -11l121 11l395 6l113 248h8l-41 -492h-827z" />
    <glyph glyph-name="three" unicode="3" horiz-adv-x="1028" 
d="M109 -33l-17 51q80 0 164.5 16t165.5 48.5t132.5 92t51.5 136.5q0 65 -25 114.5t-72 82t-102 53t-128 35.5q-10 -2 -31 -7t-31 -7l-4 34l66 25q151 57 216 98q138 87 138 205q0 98 -65.5 157.5t-172.5 59.5q-42 0 -78 -17t-61.5 -42t-50.5 -67.5t-40 -77t-36 -87.5h-10
v349h301q101 0 184 -13t150.5 -40.5t105 -76.5t37.5 -116q0 -102 -108.5 -177.5t-344.5 -142.5q471 -41 471 -272q0 -70 -45 -132.5t-118 -106t-161.5 -78.5t-180 -55.5t-168.5 -31t-133 -10.5z" />
    <glyph glyph-name="four" unicode="4" horiz-adv-x="1163" 
d="M1057 303h-250v-168l184 -135h-592l172 135v170h-475l469 914h285l-553 -822h272v164l238 365v-531h250v-92z" />
    <glyph glyph-name="five" unicode="5" horiz-adv-x="985" 
d="M217 725l76 43q99 45 194 45t182.5 -44.5t146 -133t58.5 -199.5q0 -214 -143 -324t-395 -110h-236q7 215 9 352h14q5 -12 14 -32t40.5 -70.5t66 -89.5t89 -71t111.5 -32q65 0 104.5 23.5t63 89.5t23.5 182q0 46 -2.5 83t-9.5 83.5t-22 81t-38 65.5t-60 47.5t-85 16.5
q-76 0 -211 -76h-8l-11 -55h-67l82 602l2 19h553l116 104l-22 -104l-51 -246h-545z" />
    <glyph glyph-name="six" unicode="6" horiz-adv-x="1040" 
d="M905 1292l13 -39q-199 -94 -348 -251t-199 -349q121 86 211 86q147 0 246.5 -96t99.5 -266q0 -70 -30.5 -140.5t-84.5 -129t-138 -95.5t-183 -37q-169 0 -279.5 113t-110.5 307q0 137 66.5 274.5t179.5 252.5t255.5 210t301.5 160zM358 602q-20 -90 -20 -209
q0 -171 49 -263.5t143 -92.5q45 0 80 32.5t53 81.5t26.5 96t8.5 87q0 147 -66.5 234t-144.5 87q-43 0 -70 -11t-59 -42z" />
    <glyph glyph-name="seven" unicode="7" horiz-adv-x="989" 
d="M92 1219h836l-672 -1301l-66 33l504 1022h-497l-99 -150h-6v396z" />
    <glyph glyph-name="eight" unicode="8" horiz-adv-x="1013" 
d="M512 1249q53 0 102.5 -15t91.5 -44t67.5 -79t25.5 -114q0 -88 -39.5 -150.5t-112.5 -115.5q264 -131 264 -371q0 -119 -66 -210t-167.5 -136t-218.5 -45q-160 0 -258.5 80.5t-98.5 216.5q0 50 14 96t35 79.5t53 65.5t59 52.5t61 42.5q-103 53 -155 134.5t-52 172.5
q0 138 108 239t287 101zM602 754q123 95 123 219q0 113 -66 169t-165 56q-82 0 -142.5 -52.5t-60.5 -150.5q0 -26 8 -48t27 -41.5t37.5 -34t51.5 -31.5t56 -28t65.5 -29t65.5 -29zM377 575q-81 -48 -141 -126.5t-60 -174.5q0 -103 75 -178.5t210 -75.5q117 0 189.5 60.5
t72.5 173.5q0 37 -9 69.5t-21.5 56.5t-36.5 47t-44 37.5t-54 31.5t-57 27t-63 26.5t-61 25.5z" />
    <glyph glyph-name="nine" unicode="9" horiz-adv-x="1030" 
d="M111 -68l-13 39q199 94 348 251t199 349q-121 -86 -211 -86q-147 0 -246.5 96.5t-99.5 266.5q0 70 30.5 140.5t84.5 129t138 95t183 36.5q169 0 279 -113t110 -307q0 -137 -66.5 -274.5t-179 -252.5t-255 -210t-301.5 -160zM657 623q21 95 21 208q0 171 -49.5 264
t-143.5 93q-45 0 -80 -32.5t-53 -81.5t-26.5 -96t-8.5 -87q0 -147 66.5 -234.5t144.5 -87.5q42 0 69 11.5t60 42.5z" />
    <glyph glyph-name="colon" unicode=":" horiz-adv-x="370" 
d="M352 686l-166 -188l-168 188l168 191zM352 135l-166 -188l-168 188l168 191z" />
    <glyph glyph-name="semicolon" unicode=";" horiz-adv-x="497" 
d="M426 719l-166 -189l-168 189l168 190zM129 -252l-27 21q127 110 127 213q0 13 -3 25t-5.5 19t-10.5 18.5t-10.5 14.5t-14.5 15t-13 14l-76 64l162 174q57 -37 107.5 -94t50.5 -105q0 -190 -278 -373q-7 -4 -9 -6z" />
    <glyph glyph-name="less" unicode="&#x3c;" horiz-adv-x="1056" 
d="M952 805l-686 -289l686 -287v-147l-872 352h-4v166l4 -2l872 354v-147z" />
    <glyph glyph-name="equal" unicode="=" horiz-adv-x="997" 
d="M92 682v147h780v-147h-780zM92 264v148h780v-148h-780z" />
    <glyph glyph-name="greater" unicode="&#x3e;" horiz-adv-x="1056" 
d="M94 229l686 287l-686 289v147l873 -354l2 2v-166h-2l-873 -352v147z" />
    <glyph glyph-name="question" unicode="?" horiz-adv-x="1032" 
d="M154 1423h168q67 0 122.5 -2.5t119.5 -11t113.5 -22.5t97.5 -38.5t79.5 -57t50.5 -79.5t19 -106q0 -63 -28 -119.5t-68.5 -95.5t-99 -76t-106 -58.5t-104.5 -46.5t-80 -38l-22 -221h-47l-35 249q132 48 212.5 150.5t80.5 210.5q0 156 -42.5 221.5t-109.5 65.5
q-104 0 -162.5 -71.5t-95.5 -201.5l-16 -2zM561 135l-166 -188l-166 188l166 191z" />
    <glyph glyph-name="at" unicode="@" horiz-adv-x="1402" 
d="M643 150l96 280q-87 -109 -180 -184.5t-174 -75.5q-68 0 -110 42t-42 140q0 101 51.5 203t133 179t190 122.5t215.5 38.5l78 -6l174 10l-203 -602l97 -53l256 22q53 119 53 244q0 161 -79.5 298t-216.5 216.5t-298 79.5t-298 -79.5t-216.5 -216.5t-79.5 -298t79.5 -298
t216.5 -216.5t298 -79.5q129 0 243.5 53t198.5 146l41 -41q-91 -100 -217 -157.5t-266 -57.5q-133 0 -253.5 52t-208 139.5t-139.5 208t-52 253.5t52 253.5t139.5 208t208 139.5t253.5 52t253.5 -52t208 -139.5t139.5 -208t52 -253.5q0 -165 -77 -303zM768 522l115 318
q-119 14 -228.5 -32t-175 -134.5t-65.5 -192.5q0 -72 26 -99.5t86 -27.5q53 0 125.5 51.5t116.5 116.5z" />
    <glyph glyph-name="A" unicode="A" horiz-adv-x="1488" 
d="M903 438h-506l-106 -278l186 -160h-432l139 162l496 1261h90l528 -1286l146 -137h-600l178 141zM868 530l-223 562l-213 -562h436z" />
    <glyph glyph-name="B" unicode="B" horiz-adv-x="1290" 
d="M109 1403h446q551 0 551 -309q0 -66 -26.5 -120.5t-75 -94t-96.5 -66t-111 -51.5q395 -92 395 -387q0 -85 -42 -152t-108 -108t-154.5 -67.5t-174 -37t-174.5 -10.5h-430l116 217v973zM479 1337v-563q181 0 278 77t97 202q0 284 -307 284h-68zM479 80h62
q157 0 260.5 79.5t103.5 221.5q0 99 -30.5 167t-89.5 105.5t-133 53.5t-173 16v-643z" />
    <glyph glyph-name="C" unicode="C" horiz-adv-x="1333" 
d="M1135 987h-13q-31 69 -69.5 125.5t-89 104.5t-116 75t-138.5 27q-109 0 -184.5 -67t-108.5 -174t-33 -247q0 -177 43.5 -313.5t136.5 -219.5t225 -83q272 0 416 238l29 -21q-35 -87 -83.5 -162.5t-117 -144.5t-162 -109.5t-200.5 -40.5q-260 0 -415 187t-155 491
q0 110 30 218t92 204t147.5 169t204.5 116t255 43h306v-416z" />
    <glyph glyph-name="D" unicode="D" horiz-adv-x="1505" 
d="M115 1403h518q123 0 228 -20.5t182.5 -55.5t139 -84.5t102 -105.5t67 -120.5t38 -127t11.5 -127.5q0 -233 -100.5 -406.5t-281 -264.5t-419.5 -91h-485l143 217v969zM512 78h123q86 0 158 22t122 58.5t89.5 88t63 106.5t39 118.5t21 119.5t5.5 114q0 306 -126 469
t-358 163h-137v-1259z" />
    <glyph glyph-name="E" unicode="E" horiz-adv-x="1212" 
d="M106 0l117 217v973l-117 213h941v-430h-11l-239 356h-320v-567h533v-92h-533v-596h338l281 375l10 -5l-23 -444h-977z" />
    <glyph glyph-name="F" unicode="F" horiz-adv-x="1150" 
d="M223 1190l-119 213h943v-430h-9l-241 356h-322v-573h518v-94h-518v-445l209 -217h-580v12l119 205v973z" />
    <glyph glyph-name="G" unicode="G" horiz-adv-x="1406" 
d="M1225 537v-549h-31l-184 108q-170 -123 -338 -123q-260 0 -415 187t-155 491q0 110 30 218t92 204t147.5 169t204.5 116t255 43h306v-416h-27q-32 59 -56 98.5t-63.5 88t-79 77t-95.5 48.5t-120 20q-148 0 -225.5 -123.5t-77.5 -364.5q0 -72 5 -138.5t17.5 -139t33 -133
t53.5 -116.5t75.5 -94.5t103 -61.5t132.5 -23q85 0 162 39v338l-205 110v23h557v-21z" />
    <glyph glyph-name="H" unicode="H" horiz-adv-x="1597" 
d="M936 0l145 217v465h-587v-465l145 -217h-543l144 217v971l-142 215h543l-147 -217v-412h587v414l-143 215h543l-146 -217v-969l144 -217h-543z" />
    <glyph glyph-name="I" unicode="I" horiz-adv-x="733" 
d="M240 217v969l-144 217h541l-143 -217v-969l143 -217h-541z" />
    <glyph glyph-name="J" unicode="J" horiz-adv-x="692" 
d="M473 1186v-1178q0 -56 -28 -113t-74 -105t-89.5 -83.5t-91.5 -66.5l-14 8q43 88 43 202v1336l-143 217h540z" />
    <glyph glyph-name="K" unicode="K" horiz-adv-x="1574" 
d="M596 664l-82 -86v-361l145 -217h-542l145 217v971l-145 217h542l-145 -217v-481l285 301l219 243l-62 154h453l-285 -184l-340 -359l502 -706l230 -156h-642l89 129z" />
    <glyph glyph-name="L" unicode="L" horiz-adv-x="1249" 
d="M109 0l116 217v973l-116 213h518l-148 -215v-1096h406l268 352h8l-20 -444h-1032z" />
    <glyph glyph-name="M" unicode="M" horiz-adv-x="1875" 
d="M100 0l150 197v993l-166 213h385l465 -1024l420 1024h407l-145 -168v-1020l147 -215h-565l164 213v989l-504 -1227h-14l-494 1065v-843l150 -197h-400z" />
    <glyph glyph-name="N" unicode="N" horiz-adv-x="1548" 
d="M1079 0l-714 1001v-825l165 -176h-401l143 190v953l-188 260h322l798 -1170v994l-168 176h406l-144 -191v-1093l84 -119h-303z" />
    <glyph glyph-name="O" unicode="O" horiz-adv-x="1511" 
d="M1407 764q0 -125 -29.5 -240.5t-89.5 -215.5t-145 -174t-203.5 -116.5t-257.5 -42.5q-130 0 -240.5 57t-183.5 151t-113.5 213t-40.5 245q0 125 29.5 240.5t89.5 215.5t145 174t203.5 116.5t257.5 42.5q130 0 240.5 -57t183.5 -151t113.5 -213t40.5 -245zM692 1341
q-63 0 -114.5 -22t-84 -60t-56 -83t-35 -98.5t-16.5 -98.5t-5 -90q0 -159 30 -307.5t85 -264.5t139 -186t184 -70q68 0 123.5 32t90 81.5t58.5 112t34 120t10 109.5q0 214 -52 400.5t-155 305.5t-236 119z" />
    <glyph glyph-name="P" unicode="P" horiz-adv-x="1204" 
d="M252 1186l-146 217h469q36 0 74.5 -2.5t93.5 -12.5t104.5 -25.5t100.5 -44.5t87.5 -67t59.5 -95.5t23 -127.5q0 -91 -38.5 -167.5t-102 -127.5t-138.5 -83t-155 -42q-85 -14 -178 -14v-377l174 -217h-574l146 217v969zM506 1341v-677q161 0 247.5 85.5t86.5 254.5
q0 168 -87 252.5t-247 84.5z" />
    <glyph glyph-name="Q" unicode="Q" horiz-adv-x="1511" 
d="M1180 -244l-9 -12q-179 67 -411 246q-50 -4 -78 -4q-130 0 -240.5 55.5t-183.5 147t-113.5 209t-40.5 243.5q0 156 47.5 295.5t136 247.5t228.5 171.5t313 63.5q130 0 240.5 -55.5t183.5 -147t113.5 -209t40.5 -243.5q0 -203 -77.5 -375.5t-225.5 -277.5zM692 1331
q-63 0 -114 -21t-84 -58t-56.5 -81t-35 -96t-16.5 -96.5t-5 -89.5q0 -159 30 -305.5t85 -261t139 -182.5t184 -68q68 0 123.5 31t90 78.5t58.5 108.5t34 117.5t10 108.5q0 159 -31 305.5t-86.5 260t-140.5 181.5t-185 68z" />
    <glyph glyph-name="R" unicode="R" horiz-adv-x="1425" 
d="M1374 0h-395q-18 33 -64.5 116.5t-68 121.5t-61 107.5t-65 111.5t-57.5 92.5t-59 89.5l-92 -8v-414l143 -217h-542l145 217v969l-145 217h469q38 0 76.5 -2t99.5 -10.5t113.5 -23t108.5 -42t96 -64.5t65.5 -94t25.5 -127q0 -118 -86 -206.5t-217 -139.5l303 -493z
M512 1341v-643q71 2 136 22.5t118 59t84 99.5t31 137q0 325 -369 325z" />
    <glyph glyph-name="S" unicode="S" horiz-adv-x="1107" 
d="M94 549h25q49 -206 174 -347t276 -141q87 0 145 58t58 147q0 62 -23 112.5t-62 85.5t-89.5 65.5t-106 57t-111 54t-106 63t-89.5 78t-62 104.5t-23 138q0 75 26 142t76.5 120.5t133 85t186.5 31.5h279l94 31v-443l-25 2q-47 161 -153 252.5t-240 91.5q-84 0 -135 -49.5
t-51 -136.5q0 -69 38.5 -125t100 -95t135.5 -75t148 -75.5t135.5 -86.5t100 -117.5t38.5 -158.5q0 -111 -38.5 -196t-106.5 -136t-152.5 -76.5t-183.5 -25.5q-98 0 -208 20t-179 53z" />
    <glyph glyph-name="T" unicode="T" horiz-adv-x="1351" 
d="M1251 1403v-449l-12 -2l-260 379h-197v-1114l146 -217h-543l143 217v1112h-188l-262 -377l-8 2v449h1181z" />
    <glyph glyph-name="U" unicode="U" horiz-adv-x="1599" 
d="M1315 1212v-645q0 -131 -18 -206.5t-62 -163.5q-56 -105 -165.5 -166.5t-256.5 -61.5q-30 0 -51 0.5t-66.5 5t-80 12.5t-82.5 25t-83.5 40.5t-73.5 60.5t-62.5 84t-40 112.5t-15.5 143.5v735l-141 215h542l-145 -217v-703q0 -110 21.5 -188.5t54 -121.5t85 -67.5t99 -31
t111.5 -6.5q336 0 336 548v603l-166 184h438l-176 -184z" />
    <glyph glyph-name="V" unicode="V" horiz-adv-x="1394" 
d="M944 1403h408l-138 -182l-464 -1262h-95l-514 1323l-102 121h532l-155 -125l340 -899l24 -96l330 944z" />
    <glyph glyph-name="W" unicode="W" horiz-adv-x="2058" 
d="M1599 1403h408l-131 -176l-418 -1252h-119l-282 797l-279 -797h-119l-483 1307l-100 121h532l-157 -125l321 -899l19 -76l223 590l-142 393l-96 117h533l-160 -125l303 -899l23 -90l292 936z" />
    <glyph glyph-name="X" unicode="X" horiz-adv-x="1478" 
d="M393 193l156 -193h-506l205 213l356 485l-340 488l-201 217h617l-158 -199l262 -358l242 350l-141 207h506l-230 -211l-311 -432l385 -543l209 -217h-664l174 203l-280 399z" />
    <glyph glyph-name="Y" unicode="Y" horiz-adv-x="1411" 
d="M434 0l144 217v358l-347 611l-178 217h627l-166 -217h-2l229 -387l31 -68l256 459l-166 213h496l-201 -193l-326 -559v-434l144 -217h-541z" />
    <glyph glyph-name="Z" unicode="Z" horiz-adv-x="1368" 
d="M104 -2l-14 25l817 1284h-465l-258 -355h-8l12 469l207 -20h836l14 -29l-827 -1282h553l268 352h8l-22 -444h-1121z" />
    <glyph glyph-name="bracketleft" unicode="[" horiz-adv-x="438" 
d="M391 1362h-260v-1575h260v-115h-371v1784h371v-94z" />
    <glyph glyph-name="backslash" unicode="\" horiz-adv-x="884" 
d="M684 0l-608 1423h151l609 -1423h-152z" />
    <glyph glyph-name="bracketright" unicode="]" horiz-adv-x="438" 
d="M281 -233v1595h-261v94h371v-1784h-371v95h261z" />
    <glyph glyph-name="asciicircum" unicode="^" horiz-adv-x="954" 
d="M797 578l-320 671l-319 -671h-148l385 843v2h166l-2 -2l385 -843h-147z" />
    <glyph glyph-name="underscore" unicode="_" horiz-adv-x="1138" 
d="M27 0h1085v-123h-1085v123z" />
    <glyph glyph-name="grave" unicode="`" horiz-adv-x="393" 
d="M313 1395l37 -265h-31l-251 265h245z" />
    <glyph glyph-name="a" unicode="a" 
d="M328 0l-152 -23q-47 33 -82 134.5t-35 222.5q0 192 75 340.5t226.5 237t360.5 92.5h233l-77 -111v-717l151 -176h-391v526l25 238q-92 -374 -334 -764zM360 158q20 0 88 149t130 343t63 294q-79 -1 -139 -34t-95 -83t-57 -119t-29.5 -132t-7.5 -132q0 -96 6.5 -162.5
t17 -95t23.5 -28.5z" />
    <glyph glyph-name="b" unicode="b" horiz-adv-x="1021" 
d="M625 1004l202 36q55 -85 95.5 -215.5t40.5 -269.5q0 -111 -44 -210t-126.5 -176.5t-213.5 -123t-292 -45.5h-135v1180l-140 157l375 117v-1147q111 442 238 697zM387 59q322 2 322 385q0 102 -17 191t-40 135.5t-42 46.5q-20 0 -74 -146t-101 -332t-48 -280z" />
    <glyph glyph-name="c" unicode="c" horiz-adv-x="780" 
d="M717 737l-326 137q-28 0 -51 -108t-23 -215q0 -201 37 -315.5t105 -114.5q53 0 128 93.5t144 252.5l33 -21q-74 -217 -194 -344t-210 -127q-134 0 -217.5 102t-83.5 298q0 113 43 224.5t113 197.5t160.5 148.5t183.5 86.5h21l143 -287z" />
    <glyph glyph-name="d" unicode="d" horiz-adv-x="1058" 
d="M1040 0l-391 -18v544l25 238q-92 -374 -334 -764l-152 -23q-49 35 -89 137t-40 220q0 268 157 451.5t437 213.5v181l-139 157l375 117v-1311zM373 158q20 0 87.5 149t129.5 343t63 294q-66 0 -120 -22.5t-90 -62t-62.5 -88t-40.5 -106.5t-20.5 -112t-6.5 -109
q0 -94 10 -162t23 -96t27 -28z" />
    <glyph glyph-name="e" unicode="e" horiz-adv-x="854" 
d="M762 465l33 -21q-21 -70 -63 -148.5t-98 -151.5t-128.5 -121t-143.5 -48q-140 0 -221.5 105.5t-81.5 304.5q0 148 61.5 296.5t170 248.5t229.5 100q55 0 101 -20.5t73.5 -50t47 -64t27 -60t7.5 -40.5l-450 -387q14 -130 53 -208.5t94 -78.5q41 0 86 35.5t79.5 86
t63.5 101t44 86.5zM322 457l235 223q-3 59 -15.5 110.5t-30 85.5t-36 57t-34 31.5t-23.5 2.5q-101 -63 -101 -418q0 -19 5 -92z" />
    <glyph glyph-name="f" unicode="f" horiz-adv-x="757" 
d="M784 1167l-301 156q-28 0 -48.5 -48t-23.5 -119t17 -152h330v-50l-330 -61v-369q0 -205 -19.5 -355.5t-44 -225.5t-67 -194.5t-68.5 -217.5h-16l-20 883v460l-144 130h154q0 26 18 69.5t55.5 97t87 103t119.5 91t146 58.5l84 19l78 -268z" />
    <glyph glyph-name="g" unicode="g" horiz-adv-x="1007" 
d="M326 0l-152 -23q-47 33 -82 134.5t-35 222.5q0 141 43.5 261t125 210.5t208.5 143t285 55.5h233l-78 -113q-1 -107 -2 -321.5t-2 -321.5v-17h2l-4 -53v-24q0 -122 -61 -241t-153.5 -203t-203.5 -135.5t-210 -51.5h-13l-227 278l12 15q85 -70 207 -120t189 -50
q53 0 91.5 17.5t70 61t48 125.5t17.5 201v475l24 238q-92 -376 -333 -764zM358 158q20 0 88 149t130 343t63 294q-79 -1 -139 -34t-95 -83t-57 -119t-29.5 -132t-7.5 -132q0 -96 6.5 -162.5t17 -95t23.5 -28.5z" />
    <glyph glyph-name="h" unicode="h" horiz-adv-x="1091" 
d="M383 1454v-1110q53 199 144.5 397t138.5 263l200 51q40 -123 49 -225t9 -416v-238l151 -176h-387v295q0 400 -41 543l-16 2q-95 -189 -171.5 -394t-76.5 -321l31 -125h-267v1180l-139 157z" />
    <glyph glyph-name="i" unicode="i" horiz-adv-x="561" 
d="M440 1309l-170 -191l-172 191l172 188zM399 176l152 -176h-387v729l-139 158l374 137v-848z" />
    <glyph glyph-name="j" unicode="j" horiz-adv-x="579" 
d="M483 1309l-166 -191l-167 191l167 188zM440 1024v-1012q0 -70 -24 -140t-64.5 -131t-84 -109.5t-93.5 -92.5l-12 6q45 59 45 326v858l-133 158z" />
    <glyph glyph-name="k" unicode="k" horiz-adv-x="1089" 
d="M399 1454v-1145q54 132 159 308t163.5 260.5t107.5 152.5l15 2l153 -342l-10 -4l-262 90q-18 -30 -60 -92.5t-59 -87.5q27 -37 115.5 -160t159 -218t114.5 -144l86 -94l-4 -5q-210 11 -307 72q-68 64 -160 188t-123 158q-88 -169 -88 -268l45 -125h-280v1180l-139 157z
" />
    <glyph glyph-name="l" unicode="l" horiz-adv-x="561" 
d="M164 1180l-139 157l374 117v-1278l152 -176h-387v901l-139 158l139 59v62z" />
    <glyph glyph-name="m" unicode="m" horiz-adv-x="1650" 
d="M395 1024v-680q53 199 144.5 397t138.5 263l201 51q39 -122 48 -223t9 -418v-62q53 198 143 392.5t138 259.5l200 51q40 -123 49 -225t9 -416v-238l151 -170h-387v289q0 424 -47 563q-87 -167 -165.5 -367.5t-90.5 -326.5v-47l29 -117h-265v295q0 400 -41 543l-16 2
q-95 -189 -171.5 -394t-76.5 -321l31 -125h-266v729l-140 158z" />
    <glyph glyph-name="n" unicode="n" horiz-adv-x="1112" 
d="M395 1024v-680q53 199 144.5 397t138.5 263l201 51q39 -122 48 -223t9 -418v-238l151 -176h-387v295q0 400 -41 543l-16 2q-95 -189 -171.5 -394t-76.5 -321l31 -125h-266v729l-140 158z" />
    <glyph glyph-name="o" unicode="o" horiz-adv-x="1026" 
d="M59 408q0 164 63 306t177.5 228t255.5 86q191 0 301.5 -120t110.5 -324q0 -157 -71.5 -299t-192.5 -228t-257 -86q-169 0 -278 117.5t-109 319.5zM475 963q-21 0 -40 -8t-41.5 -35t-38.5 -71t-27 -122t-11 -182q0 -120 22 -221.5t54 -160.5t64 -91.5t57 -32.5t54.5 24.5
t59 74t49 142.5t19.5 212q0 102 -17.5 186.5t-43 135.5t-56.5 86t-57.5 49t-46.5 14z" />
    <glyph glyph-name="p" unicode="p" horiz-adv-x="1040" 
d="M637 1004l203 36q54 -84 94.5 -215t40.5 -270q0 -103 -37.5 -206t-107.5 -193t-182 -154t-249 -82v-246l152 -114h-436l49 135v1065l-139 158l374 116v-678q86 344 238 648zM399 102v-129q78 1 137.5 33.5t93.5 81.5t55.5 115.5t28.5 123.5t7 117q0 102 -17 191
t-39.5 135.5t-41.5 46.5q-20 0 -74.5 -136t-102 -311.5t-47.5 -267.5z" />
    <glyph glyph-name="q" unicode="q" 
d="M340 0l-152 -23q-49 35 -89 137t-40 220q0 140 45 261t129.5 211t213 142.5t286.5 55.5h156v-1287l139 -157h-446l71 123l-4 317v526l25 238q-92 -374 -334 -764zM373 158q20 0 87.5 149t129.5 343t63 294q-66 0 -120 -22.5t-90 -62t-62.5 -88t-40.5 -106.5t-20.5 -112
t-6.5 -109q0 -94 10 -162t23 -96t27 -28z" />
    <glyph glyph-name="r" unicode="r" horiz-adv-x="837" 
d="M856 686l-270 74q-16 -7 -64.5 -119t-93.5 -267t-45 -249l16 -125h-252v729l-139 158l375 137v-651q47 182 120.5 359t160.5 300h26l172 -338z" />
    <glyph glyph-name="s" unicode="s" horiz-adv-x="702" 
d="M594 700l-12 -2q-60 93 -132.5 150t-138.5 57q-41 0 -56 -18.5t-15 -59.5q0 -33 30.5 -73t75.5 -77t98.5 -82.5t98.5 -88t75.5 -95.5t30.5 -104q0 -53 -23 -105.5t-67 -98.5t-119.5 -74.5t-169.5 -28.5h-168l-49 348l6 19q97 -142 174.5 -215.5t159.5 -73.5q94 0 94 82
q0 55 -41.5 109t-100.5 100t-118.5 92.5t-101 105t-41.5 119.5q0 55 24 111t68 102.5t112.5 75.5t149.5 29h146z" />
    <glyph glyph-name="t" unicode="t" horiz-adv-x="745" 
d="M705 981l-326 -104v-512q0 -66 5 -111t12.5 -70t21.5 -38t25.5 -16t31.5 -3q46 0 106 89.5t95 193.5l22 -9q-44 -174 -138 -300t-187 -126q-29 0 -52.5 3.5t-59 22t-59 51t-42 96.5t-19.5 153v582l-139 121h145l232 348v-348h326v-23z" />
    <glyph glyph-name="u" unicode="u" horiz-adv-x="1069" 
d="M668 0v659q-53 -199 -144 -396.5t-139 -262.5l-184 -16q-39 214 -39 350v493l-152 177l387 40v-335q0 -405 15 -559q96 187 176 398.5t80 330.5l-31 125h266v-846l139 -158h-374z" />
    <glyph glyph-name="v" unicode="v" horiz-adv-x="890" 
d="M598 1004h293q-8 -103 -36 -225t-78 -253t-114.5 -243.5t-152.5 -198t-184 -115.5l-136 764l-190 141l369 195l155 -899q78 73 133.5 191t75.5 226.5t17.5 195t-29.5 108.5l-123 100v13z" />
    <glyph glyph-name="w" unicode="w" horiz-adv-x="1447" 
d="M1155 1004h293q-8 -103 -36 -225t-78 -253t-114.5 -243.5t-152.5 -198t-184 -115.5l-101 570q-51 -137 -115.5 -249.5t-154 -201.5t-186.5 -119l-136 764l-190 141l369 195l153 -901l-2 -8q105 98 166.5 256.5t63.5 302.5q-5 28 -12.5 61.5t-21.5 96.5t-28 127h246
l145 -836l-2 -8q78 71 134.5 190t77.5 229.5t18.5 200t-29.5 111.5l-123 100v13z" />
    <glyph glyph-name="x" unicode="x" horiz-adv-x="1107" 
d="M719 0l-264 436q-1 -1 -22.5 -29.5t-26 -35t-24 -33.5t-25.5 -38t-21 -35.5t-20.5 -39.5t-14 -36.5t-11.5 -39.5t-3 -36l123 -113h-312q14 40 39.5 87.5t50 86t63.5 91.5t61 80.5t62.5 78t49.5 61.5l-234 389l-149 130h344l233 -402q3 5 33 46t40 58t30 53t27.5 67.5
t7.5 64.5l-133 113h292q-70 -196 -268 -451l244 -420l172 -133h-344z" />
    <glyph glyph-name="y" unicode="y" horiz-adv-x="1056" 
d="M694 51v463q-36 -95 -79 -178t-97.5 -159t-122.5 -130.5t-141 -77.5l-76 873l-168 162h379l66 -830q60 57 106.5 140.5t71 161.5t40 162t19.5 135t4 87v144h232v-850q0 -98 -39.5 -195.5t-105.5 -174t-147.5 -136.5t-169.5 -92.5t-167 -32.5h-12l-228 278l13 15
q85 -70 206.5 -120t188.5 -50q53 0 91.5 17.5t70 61t48 125.5t17.5 201z" />
    <glyph glyph-name="z" unicode="z" horiz-adv-x="870" 
d="M844 1004l-475 -672q120 84 245 84q119 0 177.5 -66.5t58.5 -175.5q0 -110 -45.5 -223t-121.5 -204.5t-186.5 -149.5t-230.5 -58q-145 0 -258 94l25 37q32 -23 47.5 -33.5t47 -26.5t66 -23t76.5 -7q67 0 131.5 20t121 60t91.5 109.5t35 158.5q0 114 -50.5 187t-147.5 73
q-81 0 -151.5 -21.5t-102.5 -64.5l-99 -127h-51l574 801h-416l-125 -211l-12 -2l38 457l97 -16h641z" />
    <glyph glyph-name="braceleft" unicode="{" horiz-adv-x="606" 
d="M113 582v-9q6 -4 31.5 -17t51 -27.5t57 -42t55.5 -59.5t40.5 -82.5t16.5 -108.5q0 -48 -19.5 -122t-19.5 -147q0 -124 41 -190t120 -66v-43q-155 0 -234 75.5t-79 248.5q0 42 20.5 143.5t20.5 151.5q0 139 -98 221q-33 25 -82 39v61q49 14 82 39q98 82 98 221
q0 51 -20.5 152.5t-20.5 142.5q0 174 79.5 249t235.5 75v-43q-81 0 -122 -66t-41 -190q0 -73 19.5 -146.5t19.5 -121.5q0 -58 -16.5 -108.5t-40.5 -82.5t-55.5 -60t-57 -42t-51 -27.5t-31.5 -17.5z" />
    <glyph glyph-name="bar" unicode="|" horiz-adv-x="661" 
d="M203 1434h182v-1741h-182v1741z" />
    <glyph glyph-name="braceright" unicode="}" horiz-adv-x="606" 
d="M428 573v9q-6 4 -31.5 17.5t-51 27.5t-57 42t-55.5 60t-40.5 82.5t-16.5 108.5q0 48 19.5 121.5t19.5 146.5q0 124 -41.5 190t-120.5 66v43q155 0 234.5 -75.5t79.5 -248.5q0 -41 -20.5 -142.5t-20.5 -152.5q0 -139 98 -221q33 -25 82 -39v-61q-49 -14 -82 -39
q-98 -82 -98 -221q0 -50 20.5 -151.5t20.5 -143.5q0 -173 -80 -248.5t-236 -75.5v43q81 0 122.5 66t41.5 190q0 73 -19.5 147t-19.5 122q0 58 16.5 108.5t40.5 82.5t55.5 59.5t57 42t51 27.5t31.5 17z" />
    <glyph glyph-name="asciitilde" unicode="~" horiz-adv-x="817" 
d="M676 1188l-121 -211l-303 27l-82 -89l-29 19l129 223l285 -27l90 70z" />
    <glyph glyph-name="uni00A0" unicode="&#xa0;" horiz-adv-x="409" 
 />
    <glyph glyph-name="exclamdown" unicode="&#xa1;" horiz-adv-x="444" 
d="M55 842l166 188l168 -188l-168 -191zM266 526l96 -895l-131 -94l-129 94l95 895h69z" />
    <glyph glyph-name="cent" unicode="&#xa2;" horiz-adv-x="917" 
d="M838 848h-11q-93 145 -217 188l-88 -686q31 -8 70 -8q96 0 173 60t99 124l23 -8q-13 -51 -35 -102t-57.5 -106t-78.5 -98t-102 -74t-125 -38l-28 -219h-74l21 219q-115 12 -198 85t-121 176.5t-38 222.5q0 65 15.5 132t50.5 134.5t86 122.5t128.5 95t170.5 52l20 209h127
l-26 -203h215v-278zM434 387l62 668q-58 -3 -100 -28t-65 -66t-33.5 -88.5t-10.5 -102.5q0 -286 147 -383z" />
    <glyph glyph-name="currency" unicode="&#xa4;" horiz-adv-x="954" 
d="M164 1004l133 -127q81 59 180 59q96 0 176 -57l131 125l62 -66l-127 -121q61 -80 61 -184q0 -107 -63 -189l129 -122l-62 -66l-133 127q-74 -53 -174 -53q-98 0 -178 55l-135 -129l-62 66l134 127q-62 81 -62 184q0 102 59 180l-131 125zM260 633q0 -91 63 -154t154 -63
t155 63t64 154t-64 154t-155 63t-154 -63t-63 -154z" />
    <glyph glyph-name="dieresis" unicode="&#xa8;" horiz-adv-x="841" 
d="M356 1274l-125 -158l-127 158l127 156zM735 1274l-125 -158l-127 158l127 156z" />
    <glyph glyph-name="guillemotleft" unicode="&#xab;" horiz-adv-x="1048" 
d="M592 57l-21 -20l-481 467l481 467l21 -35l-393 -432h174zM1022 57l-18 -20l-484 467l484 467l18 -35l-391 -432h172z" />
    <glyph glyph-name="softhyphen" unicode="&#xad;" horiz-adv-x="913" 
d="M53 633h807v-135h-807v135z" />
    <glyph glyph-name="macron" unicode="&#xaf;" horiz-adv-x="675" 
d="M123 1311h450v-80h-450v80z" />
    <glyph glyph-name="twosuperior" unicode="&#xb2;" horiz-adv-x="739" 
d="M78 885l-10 43q41 31 83.5 68t97 95.5t95.5 118t69.5 132.5t28.5 141q0 62 -39.5 98.5t-109.5 36.5t-117 -45.5t-84 -138.5h-6v225h186q70 0 133 -12.5t114.5 -36.5t81.5 -63t30 -89q0 -52 -27 -101t-72.5 -90.5t-92.5 -77.5t-101 -78t-84 -75l4 -6l66 6l280 4l80 158h4
l-29 -313h-581z" />
    <glyph glyph-name="threesuperior" unicode="&#xb3;" horiz-adv-x="696" 
d="M82 852l-10 39q57 0 115.5 9.5t115.5 29t93 56t36 85.5q0 42 -17 73t-50.5 51.5t-71.5 33.5t-90 22q-6 -1 -20 -4t-23 -4l-4 23l47 14q122 43 169 73q81 52 81 120q0 62 -46 98.5t-122 36.5q-37 0 -66 -14t-52 -43t-37.5 -55.5t-33.5 -68.5h-6v222h213q96 0 168 -14
t120 -50.5t48 -93.5q0 -63 -74.5 -111t-232.5 -92q58 -4 108 -14t101 -28.5t80.5 -52t29.5 -77.5q0 -53 -45.5 -99t-113 -75.5t-147.5 -50.5t-148 -30t-115 -9z" />
    <glyph glyph-name="acute" unicode="&#xb4;" horiz-adv-x="417" 
d="M104 1395h246l-252 -265h-30z" />
    <glyph glyph-name="paragraph" unicode="&#xb6;" horiz-adv-x="1193" 
d="M541 555l8 88q-52 -22 -113 -22q-159 0 -275 107.5t-116 275.5q0 107 36 185t103.5 124t156 68t200.5 22l2 -2h80v2h282v-4h178l-141 -158v-1241h-135v1313h-131v-1264q0 -100 -58 -174t-106 -84l-6 4q35 72 35 187v573z" />
    <glyph glyph-name="periodcentered" unicode="&#xb7;" horiz-adv-x="370" 
d="M352 539l-166 -189l-168 189l168 190z" />
    <glyph glyph-name="cedilla" unicode="&#xb8;" horiz-adv-x="509" 
d="M276 16l-43 -86q195 -46 195 -127q0 -56 -60.5 -99.5t-136.5 -43.5q-82 0 -153 59l18 27q65 -49 144 -49q42 0 69 14.5t27 38.5q0 35 -37 52t-146 43q-7 2 -11 2.5t-10.5 2.5t-12.5 3l104 163h53z" />
    <glyph glyph-name="onesuperior" unicode="&#xb9;" horiz-adv-x="673" 
d="M436 1667v-709l131 -86h-415l120 86v467l-133 -47l-2 2z" />
    <glyph glyph-name="guillemotright" unicode="&#xbb;" horiz-adv-x="1048" 
d="M39 950l18 21l484 -467l-484 -467l-18 35l391 432h-172zM469 950l20 21l482 -467l-482 -467l-20 35l393 432h-174z" />
    <glyph glyph-name="onequarter" unicode="&#xbc;" horiz-adv-x="1525" 
d="M305 -68l879 1541h90l-881 -1541h-88zM436 1403v-709l131 -86h-415l120 86v467l-133 -47l-2 2zM1483 193h-178v-107l131 -86h-416l121 86v109h-336l332 581h198l-389 -522h193v104l166 232v-338h178v-59z" />
    <glyph glyph-name="onehalf" unicode="&#xbd;" horiz-adv-x="1601" 
d="M221 -68l879 1541h90l-881 -1541h-88zM406 1403v-709l131 -86h-416l121 86v467l-133 -47l-3 2zM883 0l-11 43q41 31 84 68t97.5 95.5t95.5 118t69.5 132.5t28.5 141q0 62 -39.5 98.5t-109.5 36.5t-117 -45.5t-84 -138.5h-6v225h186q70 0 133 -12.5t114.5 -36.5t81.5 -63
t30 -89q0 -52 -27 -101t-72.5 -90t-92.5 -77t-101 -78t-84 -75l4 -7l65 7l281 4l80 157h4l-29 -313h-581z" />
    <glyph glyph-name="threequarters" unicode="&#xbe;" horiz-adv-x="1652" 
d="M377 -68l878 1541h91l-881 -1541h-88zM113 606l-11 39q57 0 116 9.5t116 29t93 56t36 85.5q0 55 -32.5 93t-80 56.5t-117.5 31.5q-6 -1 -20.5 -4.5t-22.5 -4.5l-4 23l47 14q122 43 169 73q81 52 81 120q0 62 -46 98.5t-122 36.5q-37 0 -66 -14t-51.5 -43t-37 -55
t-33.5 -68h-6v221h213q96 0 168 -14t120 -50.5t48 -93.5q0 -63 -74.5 -111t-233.5 -92q58 -4 108 -14t101 -28.5t81 -52t30 -77.5q0 -53 -45.5 -99t-113 -75.5t-147.5 -50.5t-148 -30t-115 -9zM1554 193h-178v-107l131 -86h-415l120 86v109h-335l331 581h199l-389 -522h192
v104l166 232v-338h178v-59z" />
    <glyph glyph-name="questiondown" unicode="&#xbf;" horiz-adv-x="1032" 
d="M682 647l-166 191l166 188l166 -188zM924 -451h-168q-67 0 -122.5 3t-119 11t-113.5 22.5t-98 38.5t-79.5 57t-50.5 80t-19 106q0 63 28 119.5t68.5 95.5t98.5 76t106 58.5t104.5 46.5t79.5 38l23 221h47l34 -250q-132 -48 -212 -150t-80 -210q0 -287 151 -287
q104 0 162.5 71.5t95.5 201.5l17 2z" />
    <glyph glyph-name="Agrave" unicode="&#xc0;" horiz-adv-x="1495" 
d="M729 1780l25 -264h-29l-252 264h256zM492 0h-433l140 162l495 1261h90l529 -1286l145 -137h-600l178 141l-118 297h-506l-107 -278zM442 520h445l-228 572z" />
    <glyph glyph-name="Aacute" unicode="&#xc1;" horiz-adv-x="1495" 
d="M737 1780h254l-252 -264h-28zM492 0h-433l140 162l495 1261h90l529 -1286l145 -137h-600l178 141l-118 297h-506l-107 -278zM442 520h445l-228 572z" />
    <glyph glyph-name="Acircumflex" unicode="&#xc2;" horiz-adv-x="1495" 
d="M821 1780l123 -264h-29l-174 143l-172 -143h-30l120 264h162zM492 0h-433l140 162l495 1261h90l529 -1286l145 -137h-600l178 141l-118 297h-506l-107 -278zM442 520h445l-228 572z" />
    <glyph glyph-name="Atilde" unicode="&#xc3;" horiz-adv-x="1488" 
d="M991 1778l-114 -207q-22 2 -92 8.5t-118.5 10t-91.5 3.5q-28 0 -77 -88l-27 19l123 219q25 -2 87 -9t109 -10.5t87 -3.5q20 0 38.5 17t47.5 53zM903 438h-506l-106 -278l186 -160h-432l139 162l496 1261h90l528 -1286l146 -137h-600l178 141zM868 530l-223 562l-213 -562
h436z" />
    <glyph glyph-name="Adieresis" unicode="&#xc4;" horiz-adv-x="1495" 
d="M647 1700l-151 -180l-150 180l150 178zM1102 1700l-150 -180l-151 180l151 178zM492 0h-433l140 162l495 1261h90l529 -1286l145 -137h-600l178 141l-118 297h-506l-107 -278zM442 520h445l-228 572z" />
    <glyph glyph-name="Aring" unicode="&#xc5;" horiz-adv-x="1495" 
d="M547 1698q0 83 56 141.5t136 58.5q78 0 134.5 -58.5t56.5 -141.5t-56.5 -142t-134.5 -59q-80 0 -136 59t-56 142zM614 1698q0 -54 36.5 -92.5t88.5 -38.5q51 0 87 38.5t36 92.5t-36 92.5t-87 38.5q-52 0 -88.5 -38.5t-36.5 -92.5zM492 0h-433l140 162l495 1261h90
l529 -1286l145 -137h-600l178 141l-118 297h-506l-107 -278zM442 520h445l-228 572z" />
    <glyph glyph-name="AE" unicode="&#xc6;" horiz-adv-x="1863" 
d="M887 217v221h-441l-157 -282l162 -156h-408l147 174l627 1106l-149 125h385l-2 -2h659v-430h-10l-240 356h-319v-567h532v-82h-532v-606h338l280 375l10 -5l-22 -444h-977zM854 1178l-362 -658h395v705l-6 6z" />
    <glyph glyph-name="Ccedilla" unicode="&#xc7;" horiz-adv-x="1333" 
d="M1204 453l29 -21q-27 -66 -61 -126t-83 -120t-105.5 -104t-131 -73.5t-156.5 -33.5l-22 -45q7 -3 31.5 -12.5t39 -15.5t37 -18t35.5 -23t23 -26.5t10 -31.5q0 -71 -57 -112t-136 -41q-48 0 -83.5 16t-75.5 53l22 37q57 -57 142 -57q41 0 70.5 13t29.5 34q0 19 -14 33
t-39.5 22.5t-50 14t-58.5 12t-51 10.5v6l88 131q-247 13 -392 198.5t-145 479.5q0 110 30 218t92 204t147.5 169t204.5 116t255 43h306v-416h-13q-31 69 -69.5 125.5t-89 104.5t-116 75t-138.5 27q-109 0 -184.5 -67t-108.5 -174t-33 -247q0 -177 43.5 -313.5t136.5 -219.5
t225 -83q272 0 416 238z" />
    <glyph glyph-name="Egrave" unicode="&#xc8;" horiz-adv-x="1212" 
d="M670 1780l26 -264h-28l-252 264h254zM797 1329h-320v-567h533v-82h-533v-606h338l281 375l10 -5l-23 -444h-977l117 217v973l-117 213h941v-430h-11z" />
    <glyph glyph-name="Eacute" unicode="&#xc9;" horiz-adv-x="1212" 
d="M557 1780h256l-252 -264h-29zM797 1329h-320v-567h533v-82h-533v-606h338l281 375l10 -5l-23 -444h-977l117 217v973l-117 213h941v-430h-11z" />
    <glyph glyph-name="Ecircumflex" unicode="&#xca;" horiz-adv-x="1212" 
d="M700 1780l123 -264h-30l-172 143l-175 -143h-28l121 264h161zM797 1329h-320v-567h533v-82h-533v-606h338l281 375l10 -5l-23 -444h-977l117 217v973l-117 213h941v-430h-11z" />
    <glyph glyph-name="Edieresis" unicode="&#xcb;" horiz-adv-x="1212" 
d="M545 1698l-150 -180l-151 180l151 178zM999 1698l-147 -180l-152 180l152 178zM797 1329h-320v-567h533v-82h-533v-606h338l281 375l10 -5l-23 -444h-977l117 217v973l-117 213h941v-430h-11z" />
    <glyph glyph-name="Igrave" unicode="&#xcc;" horiz-adv-x="733" 
d="M418 1780l24 -264h-28l-252 264h256zM240 217v969l-144 217h541l-143 -217v-969l143 -217h-541z" />
    <glyph glyph-name="Iacute" unicode="&#xcd;" horiz-adv-x="733" 
d="M317 1780h256l-251 -264h-29zM240 217v969l-144 217h541l-143 -217v-969l143 -217h-541z" />
    <glyph glyph-name="Icircumflex" unicode="&#xce;" horiz-adv-x="733" 
d="M453 1780l122 -264h-28l-174 143l-174 -143h-29l121 264h162zM240 217v969l-144 217h541l-143 -217v-969l143 -217h-541z" />
    <glyph glyph-name="Idieresis" unicode="&#xcf;" horiz-adv-x="913" 
d="M381 1700l-152 -180l-149 180l149 178zM834 1700l-150 -180l-152 180l152 178zM330 217v969l-144 217h541l-143 -217v-969l143 -217h-541z" />
    <glyph glyph-name="Eth" unicode="&#xd0;" horiz-adv-x="1449" 
d="M82 1403h520q170 0 302.5 -37t214.5 -97t135 -143t73.5 -167t20.5 -177q0 -369 -208.5 -575.5t-570.5 -206.5h-487l145 217v455h-145v102h145v412zM481 78h123q86 0 156 22t118 58t84 88.5t57 106.5t33.5 119t16.5 119t4 114q0 311 -114 471.5t-343 160.5h-135v-563h285
v-102h-285v-594z" />
    <glyph glyph-name="Ntilde" unicode="&#xd1;" horiz-adv-x="1548" 
d="M1032 1712l-114 -207q-24 2 -91.5 9t-117 10.5t-91.5 3.5q-10 0 -19.5 -6.5t-21 -22t-18 -25.5t-20.5 -34l-27 18l123 219q21 -2 86 -8.5t111 -10t86 -3.5q35 0 86 69zM1079 0l-714 1001v-825l165 -176h-401l143 190v953l-188 260h322l798 -1170v994l-168 176h406
l-144 -191v-1093l84 -119h-303z" />
    <glyph glyph-name="Ograve" unicode="&#xd2;" horiz-adv-x="1511" 
d="M696 1780l27 -264h-29l-252 264h254zM1407 764q0 -125 -29.5 -240.5t-89.5 -215.5t-145 -174t-203.5 -116.5t-257.5 -42.5q-130 0 -240.5 57t-183.5 151t-113.5 213t-40.5 245q0 125 29.5 240.5t89.5 215.5t145 174t203.5 116.5t257.5 42.5q130 0 240.5 -57t183.5 -151
t113.5 -213t40.5 -245zM692 1341q-63 0 -114.5 -22t-84 -60t-56 -83t-35 -98.5t-16.5 -98.5t-5 -90q0 -159 30 -307.5t85 -264.5t139 -186t184 -70q68 0 123.5 32t90 81.5t58.5 112t34 120t10 109.5q0 214 -52 400.5t-155 305.5t-236 119z" />
    <glyph glyph-name="Oacute" unicode="&#xd3;" horiz-adv-x="1511" 
d="M707 1780h256l-252 -264h-29zM1407 764q0 -125 -29.5 -240.5t-89.5 -215.5t-145 -174t-203.5 -116.5t-257.5 -42.5q-130 0 -240.5 57t-183.5 151t-113.5 213t-40.5 245q0 125 29.5 240.5t89.5 215.5t145 174t203.5 116.5t257.5 42.5q130 0 240.5 -57t183.5 -151
t113.5 -213t40.5 -245zM692 1341q-63 0 -114.5 -22t-84 -60t-56 -83t-35 -98.5t-16.5 -98.5t-5 -90q0 -159 30 -307.5t85 -264.5t139 -186t184 -70q68 0 123.5 32t90 81.5t58.5 112t34 120t10 109.5q0 214 -52 400.5t-155 305.5t-236 119z" />
    <glyph glyph-name="Ocircumflex" unicode="&#xd4;" horiz-adv-x="1511" 
d="M831 1780l123 -264h-28l-174 143l-174 -143h-29l121 264h161zM1407 764q0 -125 -29.5 -240.5t-89.5 -215.5t-145 -174t-203.5 -116.5t-257.5 -42.5q-130 0 -240.5 57t-183.5 151t-113.5 213t-40.5 245q0 125 29.5 240.5t89.5 215.5t145 174t203.5 116.5t257.5 42.5
q130 0 240.5 -57t183.5 -151t113.5 -213t40.5 -245zM692 1341q-63 0 -114.5 -22t-84 -60t-56 -83t-35 -98.5t-16.5 -98.5t-5 -90q0 -159 30 -307.5t85 -264.5t139 -186t184 -70q68 0 123.5 32t90 81.5t58.5 112t34 120t10 109.5q0 214 -52 400.5t-155 305.5t-236 119z" />
    <glyph glyph-name="Otilde" unicode="&#xd5;" horiz-adv-x="1511" 
d="M469 1513l123 220q25 -2 86.5 -9t108.5 -10.5t87 -3.5q35 0 87 70l28 -13l-115 -206q-23 2 -92 8.5t-117.5 10t-91.5 3.5q-9 0 -18 -6t-20.5 -22t-18 -26t-20.5 -34zM1407 764q0 -125 -29.5 -240.5t-89.5 -215.5t-145 -174t-203.5 -116.5t-257.5 -42.5q-130 0 -240.5 57
t-183.5 151t-113.5 213t-40.5 245q0 125 29.5 240.5t89.5 215.5t145 174t203.5 116.5t257.5 42.5q130 0 240.5 -57t183.5 -151t113.5 -213t40.5 -245zM692 1341q-63 0 -114.5 -22t-84 -60t-56 -83t-35 -98.5t-16.5 -98.5t-5 -90q0 -159 30 -307.5t85 -264.5t139 -186
t184 -70q68 0 123.5 32t90 81.5t58.5 112t34 120t10 109.5q0 214 -52 400.5t-155 305.5t-236 119z" />
    <glyph glyph-name="Odieresis" unicode="&#xd6;" horiz-adv-x="1511" 
d="M670 1696l-148 -180l-153 180l153 178zM1126 1696l-147 -180l-154 180l154 178zM1407 764q0 -125 -29.5 -240.5t-89.5 -215.5t-145 -174t-203.5 -116.5t-257.5 -42.5q-130 0 -240.5 57t-183.5 151t-113.5 213t-40.5 245q0 125 29.5 240.5t89.5 215.5t145 174t203.5 116.5
t257.5 42.5q130 0 240.5 -57t183.5 -151t113.5 -213t40.5 -245zM692 1341q-63 0 -114.5 -22t-84 -60t-56 -83t-35 -98.5t-16.5 -98.5t-5 -90q0 -159 30 -307.5t85 -264.5t139 -186t184 -70q68 0 123.5 32t90 81.5t58.5 112t34 120t10 109.5q0 214 -52 400.5t-155 305.5
t-236 119z" />
    <glyph glyph-name="multiply" unicode="&#xd7;" horiz-adv-x="804" 
d="M655 150l-252 264l-253 -267l-105 117l250 262l-232 244l105 104l229 -241l240 252l104 -117l-235 -248l254 -266z" />
    <glyph glyph-name="Oslash" unicode="&#xd8;" horiz-adv-x="1540" 
d="M1446 1413l-168 -196q71 -92 110 -210.5t39 -242.5q0 -125 -29.5 -240.5t-89.5 -215.5t-145 -174t-203.5 -116.5t-257.5 -42.5q-213 0 -364 144l-113 -129h-131l176 205q-70 92 -107.5 208t-37.5 238q0 125 29.5 240.5t89.5 215.5t145 174t203.5 116.5t257.5 42.5
q208 0 358 -140l107 123h131zM471 428l565 659q-129 254 -325 254q-75 0 -132.5 -32t-90 -79.5t-53.5 -112t-27.5 -119t-6.5 -109.5q0 -257 70 -461zM1077 985l-565 -659q59 -124 143 -194.5t185 -70.5q83 0 147.5 47.5t99 120.5t51.5 146.5t17 140.5q0 259 -78 469z" />
    <glyph glyph-name="Ugrave" unicode="&#xd9;" horiz-adv-x="1562" 
d="M895 1780l27 -264h-31l-250 264h254zM514 1186v-703q0 -110 21.5 -188.5t53.5 -121.5t84.5 -67.5t99 -31t112.5 -6.5q334 0 334 548v603l-150 184h389l-145 -184v-652q0 -132 -18 -208.5t-62 -161.5q-54 -104 -164.5 -166t-257.5 -62q-30 0 -51 0.5t-66.5 5t-79.5 12.5
t-82 25t-83.5 40.5t-73 60.5t-62 84t-40 112.5t-15.5 143.5v735l-143 215h542z" />
    <glyph glyph-name="Uacute" unicode="&#xda;" horiz-adv-x="1562" 
d="M809 1780h256l-252 -264h-29zM514 1186v-703q0 -110 21.5 -188.5t53.5 -121.5t84.5 -67.5t99 -31t112.5 -6.5q334 0 334 548v603l-150 184h389l-145 -184v-652q0 -132 -18 -208.5t-62 -161.5q-54 -104 -164.5 -166t-257.5 -62q-30 0 -51 0.5t-66.5 5t-79.5 12.5t-82 25
t-83.5 40.5t-73 60.5t-62 84t-40 112.5t-15.5 143.5v735l-143 215h542z" />
    <glyph glyph-name="Ucircumflex" unicode="&#xdb;" horiz-adv-x="1562" 
d="M924 1780l123 -264h-31l-172 143l-174 -143h-29l121 264h162zM514 1186v-703q0 -110 21.5 -188.5t53.5 -121.5t84.5 -67.5t99 -31t112.5 -6.5q334 0 334 548v603l-150 184h389l-145 -184v-652q0 -132 -18 -208.5t-62 -161.5q-54 -104 -164.5 -166t-257.5 -62
q-30 0 -51 0.5t-66.5 5t-79.5 12.5t-82 25t-83.5 40.5t-73 60.5t-62 84t-40 112.5t-15.5 143.5v735l-143 215h542z" />
    <glyph glyph-name="Udieresis" unicode="&#xdc;" horiz-adv-x="1562" 
d="M786 1696l-157 -189l-158 189l158 186zM1264 1696l-156 -189l-160 189l160 186zM514 1186v-703q0 -110 21.5 -188.5t53.5 -121.5t84.5 -67.5t99 -31t112.5 -6.5q334 0 334 548v603l-150 184h389l-145 -184v-652q0 -132 -18 -208.5t-62 -161.5q-54 -104 -164.5 -166
t-257.5 -62q-30 0 -51 0.5t-66.5 5t-79.5 12.5t-82 25t-83.5 40.5t-73 60.5t-62 84t-40 112.5t-15.5 143.5v735l-143 215h542z" />
    <glyph glyph-name="Yacute" unicode="&#xdd;" horiz-adv-x="1411" 
d="M997 1780l-252 -264h-28l24 264h256zM578 207v368l-347 611l-178 217h627l-166 -217h-2l229 -387l31 -68l256 459l-166 213h496l-201 -193l-326 -559v-444l164 -207h-581z" />
    <glyph glyph-name="Thorn" unicode="&#xde;" horiz-adv-x="1239" 
d="M506 1143h69q36 0 74.5 -2.5t93.5 -12.5t104.5 -25.5t100.5 -44.5t87.5 -67t59.5 -95.5t23 -127.5q0 -91 -38.5 -167.5t-102 -127.5t-138.5 -83t-155 -42q-85 -14 -178 -14v-117l174 -217h-574l146 217v969l-146 217h543l-143 -217v-43zM506 1081v-678q161 0 247.5 85.5
t86.5 254.5t-87 253.5t-247 84.5z" />
    <glyph glyph-name="germandbls" unicode="&#xdf;" horiz-adv-x="1196" 
d="M61 1004h154q0 97 66 194t173.5 160t217.5 63q254 0 254 -243q0 -48 -18.5 -97t-54 -97t-64.5 -81t-72 -76q370 -270 370 -520q0 -53 -22.5 -105.5t-66.5 -98.5t-118.5 -74.5t-168.5 -28.5h-148l21 256h6q30 -76 93.5 -127t147.5 -51q48 0 71.5 23.5t23.5 78.5
q0 52 -26.5 110t-60 103t-93.5 104t-97 91t-100 84q122 150 172.5 244t50.5 196q0 117 -49.5 184.5t-116.5 67.5q-46 0 -82 -22.5t-57.5 -59.5t-32 -83.5t-9 -97t14.5 -97.5v-480q0 -205 -19.5 -355.5t-43.5 -225.5t-66.5 -195t-68.5 -217h-17l-20 883v460z" />
    <glyph glyph-name="agrave" unicode="&#xe0;" 
d="M582 1395l36 -265h-30l-252 265h246zM328 0l-152 -23q-47 33 -82 134.5t-35 222.5q0 192 75 340.5t226.5 237t360.5 92.5h233l-77 -111v-717l151 -176h-391v526l25 238q-92 -374 -334 -764zM360 158q20 0 88 149t130 343t63 294q-79 -1 -139 -34t-95 -83t-57 -119
t-29.5 -132t-7.5 -132q0 -96 6.5 -162.5t17 -95t23.5 -28.5z" />
    <glyph glyph-name="aacute" unicode="&#xe1;" 
d="M582 1395h245l-252 -265h-30zM328 0l-152 -23q-47 33 -82 134.5t-35 222.5q0 192 75 340.5t226.5 237t360.5 92.5h233l-77 -111v-717l151 -176h-391v526l25 238q-92 -374 -334 -764zM360 158q20 0 88 149t130 343t63 294q-79 -1 -139 -34t-95 -83t-57 -119t-29.5 -132
t-7.5 -132q0 -96 6.5 -162.5t17 -95t23.5 -28.5z" />
    <glyph glyph-name="acircumflex" unicode="&#xe2;" 
d="M659 1395l101 -265l-31 7l-154 137l-153 -137l-31 -7l101 265h167zM328 0l-152 -23q-47 33 -82 134.5t-35 222.5q0 192 75 340.5t226.5 237t360.5 92.5h233l-77 -111v-717l151 -176h-391v526l25 238q-92 -374 -334 -764zM360 158q20 0 88 149t130 343t63 294
q-79 -1 -139 -34t-95 -83t-57 -119t-29.5 -132t-7.5 -132q0 -96 6.5 -162.5t17 -95t23.5 -28.5z" />
    <glyph glyph-name="atilde" unicode="&#xe3;" 
d="M342 1171l123 224q18 -2 118.5 -14.5t153.5 -12.5q20 0 38.5 17t47.5 53l29 -13l-115 -211q-21 2 -127 14.5t-161 12.5q-18 0 -36.5 -23t-41.5 -65zM328 0l-152 -23q-47 33 -82 134.5t-35 222.5q0 192 75 340.5t226.5 237t360.5 92.5h233l-77 -111v-717l151 -176h-391
v526l25 238q-92 -374 -334 -764zM360 158q20 0 88 149t130 343t63 294q-79 -1 -139 -34t-95 -83t-57 -119t-29.5 -132t-7.5 -132q0 -96 6.5 -162.5t17 -95t23.5 -28.5z" />
    <glyph glyph-name="adieresis" unicode="&#xe4;" 
d="M512 1274l-125 -158l-127 158l127 156zM891 1274l-125 -158l-127 158l127 156zM328 0l-152 -23q-47 33 -82 134.5t-35 222.5q0 192 75 340.5t226.5 237t360.5 92.5h233l-77 -111v-717l151 -176h-391v526l25 238q-92 -374 -334 -764zM360 158q20 0 88 149t130 343t63 294
q-79 -1 -139 -34t-95 -83t-57 -119t-29.5 -132t-7.5 -132q0 -96 6.5 -162.5t17 -95t23.5 -28.5z" />
    <glyph glyph-name="aring" unicode="&#xe5;" 
d="M416 1286q0 69 46.5 118.5t112.5 49.5t113 -49.5t47 -118.5t-47 -118.5t-113 -49.5t-112.5 49.5t-46.5 118.5zM473 1286q0 -44 29.5 -76t72.5 -32t73 32t30 76t-30 76.5t-73 32.5q-42 0 -72 -32t-30 -77zM328 0l-152 -23q-47 33 -82 134.5t-35 222.5q0 192 75 340.5
t226.5 237t360.5 92.5h233l-77 -111v-717l151 -176h-391v526l25 238q-92 -374 -334 -764zM360 158q20 0 88 149t130 343t63 294q-79 -1 -139 -34t-95 -83t-57 -119t-29.5 -132t-7.5 -132q0 -96 6.5 -162.5t17 -95t23.5 -28.5z" />
    <glyph glyph-name="ae" unicode="&#xe6;" horiz-adv-x="1314" 
d="M1217 465l32 -21q-16 -55 -45.5 -116.5t-72.5 -124.5t-91 -113.5t-107 -82.5t-116 -32q-140 0 -221.5 105.5t-81.5 304.5v4q-83 -193 -205 -389l-151 -23q-47 33 -82 134.5t-35 222.5q0 117 29 215.5t93.5 183.5t163 145.5t243.5 98t329 45.5q76 18 132 2.5t94.5 -45
t62 -69t33.5 -69t10 -46.5l-451 -387q14 -129 53.5 -208t94.5 -79q41 0 86 35.5t79.5 86t63.5 101t45 86.5zM776 457l236 223q-3 59 -16 110.5t-30 85.5t-36 57t-34.5 31.5t-23.5 2.5q-100 -62 -100 -418q0 -34 4 -92zM342 158q20 0 88 149t130 343t63 294q-79 -1 -139 -34
t-95 -83t-57 -119t-29.5 -132t-7.5 -132q0 -96 6.5 -162.5t17 -95t23.5 -28.5z" />
    <glyph glyph-name="ccedilla" unicode="&#xe7;" horiz-adv-x="780" 
d="M731 467l33 -21q-68 -200 -175 -322.5t-200 -143.5l-35 -72q195 -46 195 -127q0 -56 -60.5 -99.5t-136.5 -43.5q-82 0 -153 59l18 27q66 -50 143 -50q42 0 69.5 15t27.5 39q0 35 -34.5 50.5t-142.5 41.5q-26 7 -40 10l94 147q-124 9 -199.5 110.5t-75.5 287.5
q0 113 43 224.5t113 197.5t160.5 148.5t183.5 86.5h21l143 -287l-6 -8l-326 137q-28 0 -51 -108t-23 -215q0 -201 37 -315.5t105 -114.5q53 0 128 93.5t144 252.5z" />
    <glyph glyph-name="egrave" unicode="&#xe8;" horiz-adv-x="854" 
d="M444 1436l37 -265h-30l-252 265h245zM762 465l33 -21q-21 -70 -63 -148.5t-98 -151.5t-128.5 -121t-143.5 -48q-140 0 -221.5 105.5t-81.5 304.5q0 148 61.5 296.5t170 248.5t229.5 100q55 0 101 -20.5t73.5 -50t47 -64t27 -60t7.5 -40.5l-450 -387q14 -130 53 -208.5
t94 -78.5q41 0 86 35.5t79.5 86t63.5 101t44 86.5zM322 457l235 223q-3 59 -15.5 110.5t-30 85.5t-36 57t-34 31.5t-23.5 2.5q-101 -63 -101 -418q0 -19 5 -92z" />
    <glyph glyph-name="eacute" unicode="&#xe9;" horiz-adv-x="854" 
d="M444 1436h246l-252 -265h-30zM762 465l33 -21q-21 -70 -63 -148.5t-98 -151.5t-128.5 -121t-143.5 -48q-140 0 -221.5 105.5t-81.5 304.5q0 148 61.5 296.5t170 248.5t229.5 100q55 0 101 -20.5t73.5 -50t47 -64t27 -60t7.5 -40.5l-450 -387q14 -130 53 -208.5t94 -78.5
q41 0 86 35.5t79.5 86t63.5 101t44 86.5zM322 457l235 223q-3 59 -15.5 110.5t-30 85.5t-36 57t-34 31.5t-23.5 2.5q-101 -63 -101 -418q0 -19 5 -92z" />
    <glyph glyph-name="ecircumflex" unicode="&#xea;" horiz-adv-x="854" 
d="M522 1436l101 -265l-31 7l-154 137l-153 -137l-31 -7l100 265h168zM762 465l33 -21q-21 -70 -63 -148.5t-98 -151.5t-128.5 -121t-143.5 -48q-140 0 -221.5 105.5t-81.5 304.5q0 148 61.5 296.5t170 248.5t229.5 100q55 0 101 -20.5t73.5 -50t47 -64t27 -60t7.5 -40.5
l-450 -387q14 -130 53 -208.5t94 -78.5q41 0 86 35.5t79.5 86t63.5 101t44 86.5zM322 457l235 223q-3 59 -15.5 110.5t-30 85.5t-36 57t-34 31.5t-23.5 2.5q-101 -63 -101 -418q0 -19 5 -92z" />
    <glyph glyph-name="edieresis" unicode="&#xeb;" horiz-adv-x="854" 
d="M375 1315l-125 -158l-127 158l127 155zM754 1315l-125 -158l-127 158l127 155zM762 465l33 -21q-21 -70 -63 -148.5t-98 -151.5t-128.5 -121t-143.5 -48q-140 0 -221.5 105.5t-81.5 304.5q0 148 61.5 296.5t170 248.5t229.5 100q55 0 101 -20.5t73.5 -50t47 -64t27 -60
t7.5 -40.5l-450 -387q14 -130 53 -208.5t94 -78.5q41 0 86 35.5t79.5 86t63.5 101t44 86.5zM322 457l235 223q-3 59 -15.5 110.5t-30 85.5t-36 57t-34 31.5t-23.5 2.5q-101 -63 -101 -418q0 -19 5 -92z" />
    <glyph glyph-name="igrave" unicode="&#xec;" horiz-adv-x="661" 
d="M307 1395l37 -265h-31l-252 265h246zM451 176l151 -176h-387v729l-139 158l375 137v-848z" />
    <glyph glyph-name="iacute" unicode="&#xed;" horiz-adv-x="661" 
d="M307 1395h246l-252 -265h-31zM434 176l152 -176h-387v729l-140 158l375 137v-848z" />
    <glyph glyph-name="icircumflex" unicode="&#xee;" horiz-adv-x="661" 
d="M385 1395l100 -265l-30 7l-154 137l-154 -137l-30 -7l100 265h168zM438 176l152 -176h-387v729l-140 158l375 137v-848z" />
    <glyph glyph-name="idieresis" unicode="&#xef;" horiz-adv-x="661" 
d="M238 1274l-125 -158l-127 158l127 156zM616 1274l-124 -158l-127 158l127 156zM436 176l152 -176h-387v729l-140 158l375 137v-848z" />
    <glyph glyph-name="eth" unicode="&#xf0;" horiz-adv-x="1005" 
d="M743 1395l-180 -119q192 -146 298 -327t106 -363q0 -158 -71.5 -300.5t-192.5 -228.5t-257 -86q-169 0 -278 117.5t-109 319.5q0 165 63 306.5t177.5 227t255.5 84.5h63q-64 105 -147 188l-201 -131l-41 58l187 123q-105 89 -260 155l96 37q124 -54 250 -135l198 131z
M514 39q59 0 102.5 36t67 100.5t34.5 142t11 171.5q0 221 -57 414q-24 19 -81.5 39.5t-115.5 20.5q-21 0 -40 -8t-41.5 -35t-38.5 -71t-27 -122t-11 -182q0 -120 22 -221.5t54 -160.5t64 -91.5t57 -32.5z" />
    <glyph glyph-name="ntilde" unicode="&#xf1;" horiz-adv-x="1112" 
d="M330 1171l123 224q18 -2 118.5 -14.5t153.5 -12.5q20 0 38.5 17t47.5 53l29 -13l-115 -211q-20 2 -127 14.5t-162 12.5q-18 0 -36.5 -23t-41.5 -65zM395 1024v-680q53 199 144.5 397t138.5 263l201 51q39 -122 48 -223t9 -418v-238l151 -176h-387v295q0 400 -41 543
l-16 2q-95 -189 -171.5 -394t-76.5 -321l31 -125h-266v729l-140 158z" />
    <glyph glyph-name="ograve" unicode="&#xf2;" horiz-adv-x="1026" 
d="M510 1395l37 -265h-31l-252 265h246zM59 408q0 164 63 306t177.5 228t255.5 86q191 0 301.5 -120t110.5 -324q0 -157 -71.5 -299t-192.5 -228t-257 -86q-169 0 -278 117.5t-109 319.5zM475 963q-21 0 -40 -8t-41.5 -35t-38.5 -71t-27 -122t-11 -182q0 -120 22 -221.5
t54 -160.5t64 -91.5t57 -32.5t54.5 24.5t59 74t49 142.5t19.5 212q0 102 -17.5 186.5t-43 135.5t-56.5 86t-57.5 49t-46.5 14z" />
    <glyph glyph-name="oacute" unicode="&#xf3;" horiz-adv-x="1026" 
d="M510 1395h246l-252 -265h-31zM59 408q0 164 63 306t177.5 228t255.5 86q191 0 301.5 -120t110.5 -324q0 -157 -71.5 -299t-192.5 -228t-257 -86q-169 0 -278 117.5t-109 319.5zM475 963q-21 0 -40 -8t-41.5 -35t-38.5 -71t-27 -122t-11 -182q0 -120 22 -221.5t54 -160.5
t64 -91.5t57 -32.5t54.5 24.5t59 74t49 142.5t19.5 212q0 102 -17.5 186.5t-43 135.5t-56.5 86t-57.5 49t-46.5 14z" />
    <glyph glyph-name="ocircumflex" unicode="&#xf4;" horiz-adv-x="1026" 
d="M588 1395l100 -265l-31 7l-153 137l-154 -137l-31 -7l101 265h168zM59 408q0 -202 109 -319.5t278 -117.5q136 0 257 86t192.5 228t71.5 299q0 204 -110.5 324t-301.5 120q-141 0 -255.5 -86t-177.5 -228t-63 -306zM475 963q20 0 46.5 -14t57.5 -49t56.5 -86t43 -135.5
t17.5 -186.5q0 -119 -19.5 -212t-49 -142.5t-59 -74t-54.5 -24.5t-57 32.5t-64 91.5t-54 160.5t-22 221.5q0 104 11 182t27 122t38.5 71t41.5 35t40 8z" />
    <glyph glyph-name="otilde" unicode="&#xf5;" horiz-adv-x="1026" 
d="M270 1171l123 224q18 -2 119 -14.5t154 -12.5q20 0 38.5 17t47.5 53l28 -13l-114 -211q-20 2 -127 14.5t-162 12.5q-18 0 -36.5 -23t-41.5 -65zM59 408q0 -202 109 -319.5t278 -117.5q136 0 257 86t192.5 228t71.5 299q0 204 -110.5 324t-301.5 120q-141 0 -255.5 -86
t-177.5 -228t-63 -306zM475 963q20 0 46.5 -14t57.5 -49t56.5 -86t43 -135.5t17.5 -186.5q0 -119 -19.5 -212t-49 -142.5t-59 -74t-54.5 -24.5t-57 32.5t-64 91.5t-54 160.5t-22 221.5q0 104 11 182t27 122t38.5 71t41.5 35t40 8z" />
    <glyph glyph-name="odieresis" unicode="&#xf6;" horiz-adv-x="1026" 
d="M440 1274l-125 -158l-127 158l127 156zM819 1274l-125 -158l-127 158l127 156zM59 408q0 -202 109 -319.5t278 -117.5q136 0 257 86t192.5 228t71.5 299q0 204 -110.5 324t-301.5 120q-141 0 -255.5 -86t-177.5 -228t-63 -306zM475 963q20 0 46.5 -14t57.5 -49t56.5 -86
t43 -135.5t17.5 -186.5q0 -119 -19.5 -212t-49 -142.5t-59 -74t-54.5 -24.5t-57 32.5t-64 91.5t-54 160.5t-22 221.5q0 104 11 182t27 122t38.5 71t41.5 35t40 8z" />
    <glyph glyph-name="oslash" unicode="&#xf8;" horiz-adv-x="1026" 
d="M969 1038l-107 -137q105 -120 105 -317q0 -157 -71.5 -299t-192.5 -228t-257 -86q-140 0 -241 84l-66 -84h-80l101 127q-101 122 -101 310q0 164 63 306t177.5 228t255.5 86q158 0 262 -84l72 94h80zM338 330l324 418q-33 107 -89 161t-98 54q-21 0 -40 -8t-41.5 -35
t-38.5 -71t-27 -122t-11 -182q0 -108 21 -215zM682 668l-324 -416q31 -100 76.5 -156.5t79.5 -56.5q25 0 54.5 24.5t59 74t49 142.5t19.5 212q0 90 -14 176z" />
    <glyph glyph-name="ugrave" unicode="&#xf9;" horiz-adv-x="1069" 
d="M524 1432l37 -265h-31l-251 265h245zM668 0v659q-53 -199 -144 -396.5t-139 -262.5l-184 -16q-39 214 -39 350v493l-152 177l387 40v-335q0 -405 15 -559q96 187 176 398.5t80 330.5l-31 125h266v-846l139 -158h-374z" />
    <glyph glyph-name="uacute" unicode="&#xfa;" horiz-adv-x="1069" 
d="M524 1432h246l-252 -265h-31zM668 0v659q-53 -199 -144 -396.5t-139 -262.5l-184 -16q-39 214 -39 350v493l-152 177l387 40v-335q0 -405 15 -559q96 187 176 398.5t80 330.5l-31 125h266v-846l139 -158h-374z" />
    <glyph glyph-name="ucircumflex" unicode="&#xfb;" horiz-adv-x="1069" 
d="M602 1432l100 -265l-30 7l-154 137l-153 -137l-31 -7l100 265h168zM668 0v659q-53 -199 -144 -396.5t-139 -262.5l-184 -16q-39 214 -39 350v493l-152 177l387 40v-335q0 -405 15 -559q96 187 176 398.5t80 330.5l-31 125h266v-846l139 -158h-374z" />
    <glyph glyph-name="udieresis" unicode="&#xfc;" horiz-adv-x="1069" 
d="M455 1311l-125 -158l-127 158l127 155zM834 1311l-125 -158l-127 158l127 155zM668 0v659q-53 -199 -144 -396.5t-139 -262.5l-184 -16q-39 214 -39 350v493l-152 177l387 40v-335q0 -405 15 -559q96 187 176 398.5t80 330.5l-31 125h266v-846l139 -158h-374z" />
    <glyph glyph-name="yacute" unicode="&#xfd;" horiz-adv-x="1056" 
d="M535 1395h245l-252 -265h-30zM694 51v463q-36 -95 -79 -178t-97.5 -159t-122.5 -130.5t-141 -77.5l-76 873l-168 162h379l66 -830q60 57 106.5 140.5t71 161.5t40 162t19.5 135t4 87v144h232v-850q0 -98 -39.5 -195.5t-105.5 -174t-147.5 -136.5t-169.5 -92.5t-167 -32.5
h-12l-228 278l13 15q85 -70 206.5 -120t188.5 -50q53 0 91.5 17.5t70 61t48 125.5t17.5 201z" />
    <glyph glyph-name="thorn" unicode="&#xfe;" horiz-adv-x="1028" 
d="M625 1004l202 36q55 -85 95.5 -215.5t40.5 -269.5q0 -103 -37.5 -206t-107.5 -193t-182 -154t-249 -82v-246l152 -114h-437l50 135v1485l-140 157l375 117v-1098q86 344 238 648zM387 102v-129q78 1 137.5 33.5t93.5 81.5t55.5 115.5t28.5 123.5t7 117q0 102 -17 191
t-40 135.5t-42 46.5q-20 0 -74.5 -136t-101.5 -311.5t-47 -267.5z" />
    <glyph glyph-name="ydieresis" unicode="&#xff;" horiz-adv-x="1056" 
d="M465 1274l-125 -158l-127 158l127 156zM844 1274l-125 -158l-127 158l127 156zM694 51v463q-36 -95 -79 -178t-97.5 -159t-122.5 -130.5t-141 -77.5l-76 873l-168 162h379l66 -830q60 57 106.5 140.5t71 161.5t40 162t19.5 135t4 87v144h232v-850q0 -98 -39.5 -195.5
t-105.5 -174t-147.5 -136.5t-169.5 -92.5t-167 -32.5h-12l-228 278l13 15q85 -70 206.5 -120t188.5 -50q53 0 91.5 17.5t70 61t48 125.5t17.5 201z" />
    <glyph glyph-name="Cacute" unicode="&#x106;" horiz-adv-x="1333" 
d="M692 1780h256l-252 -264h-28zM1135 987h-13q-31 69 -69.5 125.5t-89 104.5t-116 75t-138.5 27q-109 0 -184.5 -67t-108.5 -174t-33 -247q0 -177 43.5 -313.5t136.5 -219.5t225 -83q272 0 416 238l29 -21q-35 -87 -83.5 -162.5t-117 -144.5t-162 -109.5t-200.5 -40.5
q-260 0 -415 187t-155 491q0 110 30 218t92 204t147.5 169t204.5 116t255 43h306v-416z" />
    <glyph glyph-name="cacute" unicode="&#x107;" horiz-adv-x="780" 
d="M467 1395h246l-252 -265h-31zM717 737l-326 137q-28 0 -51 -108t-23 -215q0 -201 37 -315.5t105 -114.5q53 0 128 93.5t144 252.5l33 -21q-74 -217 -194 -344t-210 -127q-134 0 -217.5 102t-83.5 298q0 113 43 224.5t113 197.5t160.5 148.5t183.5 86.5h21l143 -287z" />
    <glyph glyph-name="Ccircumflex" unicode="&#x108;" horiz-adv-x="1333" 
d="M829 1780l123 -264h-28l-174 143l-175 -143h-28l121 264h161zM1135 987h-13q-31 69 -69.5 125.5t-89 104.5t-116 75t-138.5 27q-109 0 -184.5 -67t-108.5 -174t-33 -247q0 -177 43.5 -313.5t136.5 -219.5t225 -83q272 0 416 238l29 -21q-35 -87 -83.5 -162.5t-117 -144.5
t-162 -109.5t-200.5 -40.5q-260 0 -415 187t-155 491q0 110 30 218t92 204t147.5 169t204.5 116t255 43h306v-416z" />
    <glyph glyph-name="ccircumflex" unicode="&#x109;" horiz-adv-x="780" 
d="M545 1395l100 -265l-31 7l-153 137l-154 -137l-31 -7l101 265h168zM717 737l-326 137q-28 0 -51 -108t-23 -215q0 -201 37 -315.5t105 -114.5q53 0 128 93.5t144 252.5l33 -21q-74 -217 -194 -344t-210 -127q-134 0 -217.5 102t-83.5 298q0 113 43 224.5t113 197.5
t160.5 148.5t183.5 86.5h21l143 -287z" />
    <glyph glyph-name="cdotaccent" unicode="&#x10b;" horiz-adv-x="780" 
d="M614 1272l-153 -162l-156 162l156 160zM717 737l-326 137q-28 0 -51 -108t-23 -215q0 -201 37 -315.5t105 -114.5q53 0 128 93.5t144 252.5l33 -21q-74 -217 -194 -344t-210 -127q-134 0 -217.5 102t-83.5 298q0 113 43 224.5t113 197.5t160.5 148.5t183.5 86.5h21
l143 -287z" />
    <glyph glyph-name="Ccaron" unicode="&#x10c;" horiz-adv-x="1333" 
d="M938 1780l-123 -264h-162l-121 264h31l172 -144l174 144h29zM1135 987h-13q-31 69 -69.5 125.5t-89 104.5t-116 75t-138.5 27q-109 0 -184.5 -67t-108.5 -174t-33 -247q0 -177 43.5 -313.5t136.5 -219.5t225 -83q272 0 416 238l29 -21q-35 -87 -83.5 -162.5t-117 -144.5
t-162 -109.5t-200.5 -40.5q-260 0 -415 187t-155 491q0 110 30 218t92 204t147.5 169t204.5 116t255 43h306v-416z" />
    <glyph glyph-name="ccaron" unicode="&#x10d;" horiz-adv-x="780" 
d="M645 1395l-100 -265h-168l-101 265l31 -6l154 -138l153 138zM717 737l-326 137q-28 0 -51 -108t-23 -215q0 -201 37 -315.5t105 -114.5q53 0 128 93.5t144 252.5l33 -21q-74 -217 -194 -344t-210 -127q-134 0 -217.5 102t-83.5 298q0 113 43 224.5t113 197.5t160.5 148.5
t183.5 86.5h21l143 -287z" />
    <glyph glyph-name="Dcaron" unicode="&#x10e;" horiz-adv-x="1505" 
d="M918 1780l-123 -264h-162l-121 264h29l174 -144l174 144h29zM115 1403h518q123 0 228 -20.5t182.5 -55.5t139 -84.5t102 -105.5t67 -120.5t38 -127t11.5 -127.5q0 -233 -100.5 -406.5t-281 -264.5t-419.5 -91h-485l143 217v969zM512 78h123q86 0 158 22t122 58.5t89.5 88
t63 106.5t39 118.5t21 119.5t5.5 114q0 306 -126 469t-358 163h-137v-1259z" />
    <glyph glyph-name="dcaron" unicode="&#x10f;" horiz-adv-x="1415" 
d="M1053 879l-27 20q127 110 127 213q0 15 -3 28t-10.5 25t-12 18.5t-16.5 19t-15 16.5l-76 63l162 174q57 -37 107 -94t50 -105q0 -190 -277 -372q-7 -4 -9 -6zM1040 0l-391 -18v544l25 238q-92 -374 -334 -764l-152 -23q-49 35 -89 137t-40 220q0 268 157 451.5t437 213.5
v181l-139 157l375 117v-1311zM373 158q20 0 87.5 149t129.5 343t63 294q-66 0 -120 -22.5t-90 -62t-62.5 -88t-40.5 -106.5t-20.5 -112t-6.5 -109q0 -94 10 -162t23 -96t27 -28z" />
    <glyph glyph-name="Edotaccent" unicode="&#x116;" horiz-adv-x="1212" 
d="M754 1679l-136 -166l-139 166l139 164zM797 1329h-320v-567h533v-82h-533v-606h338l281 375l10 -5l-23 -444h-977l117 217v973l-117 213h941v-430h-11z" />
    <glyph glyph-name="edotaccent" unicode="&#x117;" horiz-adv-x="854" 
d="M592 1313l-154 -162l-155 162l155 160zM762 465l33 -21q-21 -70 -63 -148.5t-98 -151.5t-128.5 -121t-143.5 -48q-140 0 -221.5 105.5t-81.5 304.5q0 148 61.5 296.5t170 248.5t229.5 100q55 0 101 -20.5t73.5 -50t47 -64t27 -60t7.5 -40.5l-450 -387q14 -130 53 -208.5
t94 -78.5q41 0 86 35.5t79.5 86t63.5 101t44 86.5zM322 457l235 223q-3 59 -15.5 110.5t-30 85.5t-36 57t-34 31.5t-23.5 2.5q-101 -63 -101 -418q0 -19 5 -92z" />
    <glyph glyph-name="Ecaron" unicode="&#x11a;" horiz-adv-x="1212" 
d="M831 1780l-122 -264h-162l-121 264h31l172 -144l174 144h28zM797 1329h-320v-567h533v-82h-533v-606h338l281 375l10 -5l-23 -444h-977l117 217v973l-117 213h941v-430h-11z" />
    <glyph glyph-name="ecaron" unicode="&#x11b;" horiz-adv-x="854" 
d="M623 1436l-101 -265h-168l-100 265l31 -6l153 -138l154 138zM762 465l33 -21q-21 -70 -63 -148.5t-98 -151.5t-128.5 -121t-143.5 -48q-140 0 -221.5 105.5t-81.5 304.5q0 148 61.5 296.5t170 248.5t229.5 100q55 0 101 -20.5t73.5 -50t47 -64t27 -60t7.5 -40.5
l-450 -387q14 -130 53 -208.5t94 -78.5q41 0 86 35.5t79.5 86t63.5 101t44 86.5zM322 457l235 223q-3 59 -15.5 110.5t-30 85.5t-36 57t-34 31.5t-23.5 2.5q-101 -63 -101 -418q0 -19 5 -92z" />
    <glyph glyph-name="dotlessi" unicode="&#x131;" horiz-adv-x="661" 
d="M449 176l151 -176h-549l152 176v553l-140 158l386 137v-848z" />
    <glyph glyph-name="IJ" unicode="&#x132;" horiz-adv-x="1415" 
d="M256 217v969l-143 217h540l-143 -217v-969l143 -217h-540zM1159 1186v-1178q0 -56 -27.5 -113t-73.5 -105t-90 -83.5t-91 -66.5l-15 8q43 88 43 202v1336l-143 217h541z" />
    <glyph glyph-name="ij" unicode="&#x133;" horiz-adv-x="1140" 
d="M440 1309l-170 -191l-172 191l172 188zM1044 1309l-165 -191l-168 191l168 188zM399 176l152 -176h-387v729l-139 158l374 137v-848zM1001 1024v-1012q0 -70 -24 -140t-64.5 -131t-84 -109.5t-93.5 -92.5l-12 6q45 59 45 326v858l-133 158z" />
    <glyph glyph-name="Lacute" unicode="&#x139;" horiz-adv-x="1249" 
d="M344 1780h256l-252 -264h-29zM225 1190l-116 213h518l-148 -215v-1114h391l283 370h8l-20 -444h-1032l116 217v973z" />
    <glyph glyph-name="Lcaron" unicode="&#x13d;" horiz-adv-x="1257" 
d="M836 879l-27 20q127 110 127 213q0 15 -3 28t-10.5 25t-12 18.5t-16.5 19t-15 16.5l-76 63l162 174q57 -37 107 -94t50 -105q0 -190 -277 -372q-3 -2 -5 -3.5t-4 -2.5zM225 1190l-116 213h518l-148 -215v-1114h391l283 370h8l-20 -444h-1032l116 217v973z" />
    <glyph glyph-name="Ldot" unicode="&#x13f;" horiz-adv-x="1257" 
d="M225 1190l-116 213h518l-148 -215v-1114h391l283 370h8l-20 -444h-1032l116 217v973zM1087 776l-165 -188l-168 188l168 191z" />
    <glyph glyph-name="ldot" unicode="&#x140;" horiz-adv-x="903" 
d="M164 1180l-139 157l374 117v-1278l152 -176h-387v901l-139 158l139 59v62zM879 539l-166 -189l-168 189l168 190z" />
    <glyph glyph-name="Lslash" unicode="&#x141;" horiz-adv-x="1277" 
d="M242 217v375l-193 -60v127l193 60v471l-117 213h518l-147 -215v-391l256 80v-132l-256 -77v-594h391l282 370h9l-21 -444h-1032z" />
    <glyph glyph-name="Nacute" unicode="&#x143;" horiz-adv-x="1548" 
d="M735 1780h256l-252 -264h-28zM524 0h-418l144 190v953l-189 260h322l809 -1137v961l-168 176h418l-144 -191v-1093l84 -119h-303l-723 997v-821z" />
    <glyph glyph-name="Ncaron" unicode="&#x147;" horiz-adv-x="1548" 
d="M979 1780l-123 -264h-162l-121 264h31l172 -144l174 144h29zM524 0h-418l144 190v953l-189 260h322l809 -1137v961l-168 176h418l-144 -191v-1093l84 -119h-303l-723 997v-821z" />
    <glyph glyph-name="OE" unicode="&#x152;" horiz-adv-x="2035" 
d="M1280 680v-606h338l280 375l11 -5l-21 -444h-1194q-105 0 -197 34.5t-161 95t-118.5 141.5t-75 175.5t-25.5 194.5q0 156 47.5 293t136 242t228.5 166t313 61h1009v-430h-12l-237 356h-322v-567h532v-82h-532zM1026 1327h-240q-94 0 -167.5 -39.5t-114.5 -97t-67.5 -132
t-35 -134t-8.5 -113.5q0 -203 51 -368.5t152 -267t235 -101.5h195v1253z" />
    <glyph glyph-name="oe" unicode="&#x153;" horiz-adv-x="1505" 
d="M1407 465l33 -21q-16 -55 -45.5 -116.5t-72.5 -124.5t-91 -113.5t-107 -82.5t-116 -32q-162 0 -242 136q-147 -140 -320 -140q-169 0 -278 117.5t-109 319.5q0 164 63 306t177.5 228t255.5 86q215 0 330 -156q53 62 108 101.5t97 48.5q76 18 132 2.5t94 -45t61.5 -69
t33.5 -69t10 -46.5l-450 -387q14 -130 53 -208.5t94 -78.5q41 0 86 35.5t79.5 86t63.5 101t45 86.5zM967 457l235 223q-3 59 -15.5 110.5t-30 85.5t-36 57t-34 31.5t-23.5 2.5q-87 -53 -98 -328q2 -18 2 -55q0 -22 -4 -68zM514 39q25 0 54.5 24.5t59 74t49 142.5t19.5 212
q0 102 -17.5 186.5t-43 135.5t-56.5 86t-57.5 49t-46.5 14q-21 0 -40 -8t-41.5 -35t-38.5 -71t-27 -122t-11 -182q0 -120 22 -221.5t54 -160.5t64 -91.5t57 -32.5z" />
    <glyph glyph-name="Racute" unicode="&#x154;" horiz-adv-x="1425" 
d="M618 1780h256l-251 -264h-29zM1374 0h-395q-18 33 -64.5 116.5t-68 121.5t-61 107.5t-65 111.5t-57.5 92.5t-59 89.5l-92 -8v-414l143 -217h-542l145 217v969l-145 217h469q38 0 76.5 -2t99.5 -10.5t113.5 -23t108.5 -42t96 -64.5t65.5 -94t25.5 -127q0 -118 -86 -206.5
t-217 -139.5l303 -493zM512 1341v-643q71 2 136 22.5t118 59t84 99.5t31 137q0 325 -369 325z" />
    <glyph glyph-name="racute" unicode="&#x155;" horiz-adv-x="837" 
d="M426 1395h246l-252 -265h-31zM856 686l-270 74q-16 -7 -64.5 -119t-93.5 -267t-45 -249l16 -125h-252v729l-139 158l375 137v-651q47 182 120.5 359t160.5 300h26l172 -338z" />
    <glyph glyph-name="Rcaron" unicode="&#x158;" horiz-adv-x="1425" 
d="M844 1780l-123 -264h-162l-123 264h31l174 -144l172 144h31zM1374 0h-395q-18 33 -64.5 116.5t-68 121.5t-61 107.5t-65 111.5t-57.5 92.5t-59 89.5l-92 -8v-414l143 -217h-542l145 217v969l-145 217h469q38 0 76.5 -2t99.5 -10.5t113.5 -23t108.5 -42t96 -64.5t65.5 -94
t25.5 -127q0 -118 -86 -206.5t-217 -139.5l303 -493zM512 1341v-643q71 2 136 22.5t118 59t84 99.5t31 137q0 325 -369 325z" />
    <glyph glyph-name="rcaron" unicode="&#x159;" horiz-adv-x="837" 
d="M604 1395l-100 -265h-168l-100 265l30 -6l154 -138l153 138zM856 686l-270 74q-16 -7 -64.5 -119t-93.5 -267t-45 -249l16 -125h-252v729l-139 158l375 137v-651q47 182 120.5 359t160.5 300h26l172 -338z" />
    <glyph glyph-name="Sacute" unicode="&#x15a;" horiz-adv-x="1073" 
d="M514 1780h256l-252 -264h-29zM70 549h22q51 -206 176.5 -347t276.5 -141q87 0 153 48t66 137q0 60 -23.5 108t-63.5 82t-91.5 63t-108.5 55t-114 53.5t-108.5 64t-91.5 81.5t-63.5 110t-23.5 145q0 81 26 151t77 125t133.5 87t187.5 32h278l94 31v-443l-16 2
q-54 161 -162 252.5t-241 91.5q-84 0 -135.5 -49.5t-51.5 -136.5q0 -67 39.5 -119.5t102 -88t138.5 -68t152.5 -69.5t139 -83t102 -118t39.5 -165q0 -120 -36.5 -209t-104.5 -142.5t-157 -79t-200 -25.5q-98 0 -208 20t-179 53z" />
    <glyph glyph-name="sacute" unicode="&#x15b;" horiz-adv-x="702" 
d="M385 1395h246l-252 -265h-31zM594 700l-12 -2q-60 93 -132.5 150t-138.5 57q-41 0 -56 -18.5t-15 -59.5q0 -33 30.5 -73t75.5 -77t98.5 -82.5t98.5 -88t75.5 -95.5t30.5 -104q0 -53 -23 -105.5t-67 -98.5t-119.5 -74.5t-169.5 -28.5h-168l-49 348l6 19
q97 -142 174.5 -215.5t159.5 -73.5q94 0 94 82q0 55 -41.5 109t-100.5 100t-118.5 92.5t-101 105t-41.5 119.5q0 55 24 111t68 102.5t112.5 75.5t149.5 29h146z" />
    <glyph glyph-name="Scaron" unicode="&#x160;" horiz-adv-x="1107" 
d="M774 1780l-123 -264h-164l-120 264h30l172 -144l174 144h31zM94 549h23q33 -134 99.5 -244t159.5 -177t193 -67q87 0 153 48t66 137q0 60 -23.5 108t-63.5 82t-91.5 63t-108.5 55t-114 53.5t-108.5 64t-91.5 81.5t-63.5 110t-23.5 145q0 81 26 151t77 125t133.5 87
t187.5 32h279l94 31v-443l-16 2q-54 161 -162.5 252.5t-241.5 91.5q-84 0 -135 -49.5t-51 -136.5q0 -67 39.5 -119.5t102 -88t138.5 -68t152.5 -69.5t139 -83t102 -118t39.5 -165q0 -120 -36.5 -209t-104.5 -142.5t-157 -79t-200 -25.5q-98 0 -208 20t-179 53z" />
    <glyph glyph-name="scaron" unicode="&#x161;" horiz-adv-x="702" 
d="M563 1395l-100 -265h-168l-100 265l30 -6l154 -138l153 138zM594 700l-12 -2q-60 93 -132.5 150t-138.5 57q-41 0 -56 -18.5t-15 -59.5q0 -33 30.5 -73t75.5 -77t98.5 -82.5t98.5 -88t75.5 -95.5t30.5 -104q0 -53 -23 -105.5t-67 -98.5t-119.5 -74.5t-169.5 -28.5h-168
l-49 348l6 19q97 -142 174.5 -215.5t159.5 -73.5q94 0 94 82q0 55 -41.5 109t-100.5 100t-118.5 92.5t-101 105t-41.5 119.5q0 55 24 111t68 102.5t112.5 75.5t149.5 29h146z" />
    <glyph glyph-name="Tcaron" unicode="&#x164;" horiz-adv-x="1351" 
d="M846 1780l-123 -264h-162l-121 264h31l172 -144l174 144h29zM1251 1403v-449l-12 -2l-260 379h-197v-1114l146 -217h-543l143 217v1112h-188l-262 -377l-8 2v449h1181z" />
    <glyph glyph-name="Uring" unicode="&#x16e;" horiz-adv-x="1562" 
d="M651 1655q0 83 56.5 141.5t136.5 58.5q78 0 134 -58.5t56 -141.5t-56 -142t-134 -59q-80 0 -136.5 59t-56.5 142zM719 1655q0 -54 36.5 -92.5t88.5 -38.5q51 0 88 38.5t37 92.5t-37 92.5t-88 38.5q-52 0 -88.5 -38.5t-36.5 -92.5zM514 1186v-703q0 -110 21.5 -188.5
t53.5 -121.5t84.5 -67.5t99 -31t112.5 -6.5q334 0 334 548v603l-150 184h389l-145 -184v-652q0 -132 -18 -208.5t-62 -161.5q-54 -104 -164.5 -166t-257.5 -62q-30 0 -51 0.5t-66.5 5t-79.5 12.5t-82 25t-83.5 40.5t-73 60.5t-62 84t-40 112.5t-15.5 143.5v735l-143 215h542
z" />
    <glyph glyph-name="uring" unicode="&#x16f;" horiz-adv-x="1069" 
d="M358 1323q0 69 47 118.5t113 49.5t113 -49.5t47 -118.5t-47 -118.5t-113 -49.5t-113 49.5t-47 118.5zM416 1323q0 -45 30 -77t72 -32q43 0 73 32.5t30 76.5t-30 76.5t-73 32.5q-42 0 -72 -32t-30 -77zM668 0v659q-53 -199 -144 -396.5t-139 -262.5l-184 -16
q-39 214 -39 350v493l-152 177l387 40v-335q0 -405 15 -559q96 187 176 398.5t80 330.5l-31 125h266v-846l139 -158h-374z" />
    <glyph glyph-name="Wcircumflex" unicode="&#x174;" horiz-adv-x="2058" 
d="M1128 1780l123 -264h-28l-174 143l-175 -143h-28l121 264h161zM1599 1403h408l-131 -176l-418 -1252h-119l-282 797l-279 -797h-119l-483 1307l-100 121h532l-157 -125l321 -899l19 -76l223 590l-142 393l-96 117h533l-160 -125l303 -899l23 -90l292 936z" />
    <glyph glyph-name="wcircumflex" unicode="&#x175;" horiz-adv-x="1447" 
d="M920 1395l100 -265l-31 7l-153 137l-154 -137l-31 -7l101 265h168zM1155 1004h293q-8 -103 -36 -225t-78 -253t-114.5 -243.5t-152.5 -198t-184 -115.5l-101 570q-51 -137 -115.5 -249.5t-154 -201.5t-186.5 -119l-136 764l-190 141l369 195l153 -901l-2 -8
q105 98 166.5 256.5t63.5 302.5q-5 28 -12.5 61.5t-21.5 96.5t-28 127h246l145 -836l-2 -8q78 71 134.5 190t77.5 229.5t18.5 200t-29.5 111.5l-123 100v13z" />
    <glyph glyph-name="Ycircumflex" unicode="&#x176;" horiz-adv-x="1411" 
d="M848 1780l123 -264h-31l-172 143l-174 -143h-31l123 264h162zM414 0l164 207v368l-347 611l-178 217h627l-166 -217h-2l229 -387l31 -68l256 459l-166 213h496l-201 -193l-326 -559v-444l164 -207h-581z" />
    <glyph glyph-name="ycircumflex" unicode="&#x177;" horiz-adv-x="1056" 
d="M612 1395l101 -265l-31 7l-154 137l-153 -137l-31 -7l100 265h168zM694 51v463q-36 -95 -79 -178t-97.5 -159t-122.5 -130.5t-141 -77.5l-76 873l-168 162h379l66 -830q60 57 106.5 140.5t71 161.5t40 162t19.5 135t4 87v144h232v-850q0 -98 -39.5 -195.5t-105.5 -174
t-147.5 -136.5t-169.5 -92.5t-167 -32.5h-12l-228 278l13 15q85 -70 206.5 -120t188.5 -50q53 0 91.5 17.5t70 61t48 125.5t17.5 201z" />
    <glyph glyph-name="Ydieresis" unicode="&#x178;" horiz-adv-x="1411" 
d="M672 1700l-150 -180l-151 180l151 178zM1126 1700l-149 -180l-152 180l152 178zM414 0l164 207v368l-347 611l-178 217h627l-166 -217h-2l229 -387l31 -68l256 459l-166 213h496l-201 -193l-326 -559v-444l164 -207h-581z" />
    <glyph glyph-name="Zacute" unicode="&#x179;" horiz-adv-x="1368" 
d="M627 1780h245l-251 -264h-29zM1239 444h8l-22 -444h-1121l-14 25l830 1304h-463l-273 -375h-8l12 469l207 -20h836l14 -29l-839 -1300h550z" />
    <glyph glyph-name="zacute" unicode="&#x17a;" horiz-adv-x="870" 
d="M469 1395h246l-252 -265h-31zM844 1004l-475 -672q120 84 245 84q119 0 177.5 -66.5t58.5 -175.5q0 -110 -45.5 -223t-121.5 -204.5t-186.5 -149.5t-230.5 -58q-145 0 -258 94l25 37q32 -23 47.5 -33.5t47 -26.5t66 -23t76.5 -7q67 0 131.5 20t121 60t91.5 109.5
t35 158.5q0 114 -50.5 187t-147.5 73q-81 0 -151.5 -21.5t-102.5 -64.5l-99 -127h-51l574 801h-416l-125 -211l-12 -2l38 457l97 -16h641z" />
    <glyph glyph-name="Zdotaccent" unicode="&#x17b;" horiz-adv-x="1368" 
d="M815 1679l-135 -166l-139 166l139 164zM1239 444h8l-22 -444h-1121l-14 25l830 1304h-463l-273 -375h-8l12 469l207 -20h836l14 -29l-839 -1300h550z" />
    <glyph glyph-name="zdotaccent" unicode="&#x17c;" horiz-adv-x="870" 
d="M616 1272l-153 -162l-156 162l156 160zM844 1004l-475 -672q120 84 245 84q119 0 177.5 -66.5t58.5 -175.5q0 -110 -45.5 -223t-121.5 -204.5t-186.5 -149.5t-230.5 -58q-145 0 -258 94l25 37q32 -23 47.5 -33.5t47 -26.5t66 -23t76.5 -7q67 0 131.5 20t121 60
t91.5 109.5t35 158.5q0 114 -50.5 187t-147.5 73q-81 0 -151.5 -21.5t-102.5 -64.5l-99 -127h-51l574 801h-416l-125 -211l-12 -2l38 457l97 -16h641z" />
    <glyph glyph-name="Zcaron" unicode="&#x17d;" horiz-adv-x="1368" 
d="M901 1780l-123 -264h-162l-120 264h30l172 -144l174 144h29zM1239 444h8l-22 -444h-1121l-14 25l830 1304h-463l-273 -375h-8l12 469l207 -20h836l14 -29l-839 -1300h550z" />
    <glyph glyph-name="zcaron" unicode="&#x17e;" horiz-adv-x="870" 
d="M647 1395l-100 -265h-168l-100 265l30 -6l154 -138l153 138zM844 1004l-475 -672q120 84 245 84q119 0 177.5 -66.5t58.5 -175.5q0 -110 -45.5 -223t-121.5 -204.5t-186.5 -149.5t-230.5 -58q-145 0 -258 94l25 37q32 -23 47.5 -33.5t47 -26.5t66 -23t76.5 -7
q67 0 131.5 20t121 60t91.5 109.5t35 158.5q0 114 -50.5 187t-147.5 73q-81 0 -151.5 -21.5t-102.5 -64.5l-99 -127h-51l574 801h-416l-125 -211l-12 -2l38 457l97 -16h641z" />
    <glyph glyph-name="circumflex" unicode="&#x2c6;" horiz-adv-x="436" 
d="M301 1395l100 -265l-30 7l-154 137l-154 -137l-30 -7l100 265h168z" />
    <glyph glyph-name="caron" unicode="&#x2c7;" horiz-adv-x="434" 
d="M401 1395l-100 -265h-168l-100 265l30 -6l154 -138l154 138z" />
    <glyph glyph-name="dotaccent" unicode="&#x2d9;" horiz-adv-x="505" 
d="M408 1272l-154 -162l-156 162l156 160z" />
    <glyph glyph-name="ring" unicode="&#x2da;" horiz-adv-x="389" 
d="M33 1286q0 69 47 118.5t113 49.5t112.5 -49.5t46.5 -118.5t-46.5 -118.5t-112.5 -49.5t-113 49.5t-47 118.5zM90 1286q0 -44 30 -76t73 -32t72.5 32t29.5 76q0 45 -30 77t-72 32q-43 0 -73 -32.5t-30 -76.5z" />
    <glyph glyph-name="tilde" unicode="&#x2dc;" horiz-adv-x="739" 
d="M154 1171l122 224q18 -2 119 -14.5t154 -12.5q20 0 38.5 17t47.5 53l29 -13l-115 -211q-20 2 -127 14.5t-162 12.5q-18 0 -36.5 -23t-41.5 -65z" />
    <glyph glyph-name="Wgrave" unicode="&#x1e80;" horiz-adv-x="2058" 
d="M1053 1780l24 -264h-28l-252 264h256zM1599 1403h408l-131 -176l-418 -1252h-119l-282 797l-279 -797h-119l-483 1307l-100 121h532l-157 -125l321 -899l19 -76l223 590l-142 393l-96 117h533l-160 -125l303 -899l23 -90l292 936z" />
    <glyph glyph-name="wgrave" unicode="&#x1e81;" horiz-adv-x="1447" 
d="M842 1395l37 -265h-31l-252 265h246zM1155 1004h293q-8 -103 -36 -225t-78 -253t-114.5 -243.5t-152.5 -198t-184 -115.5l-101 570q-51 -137 -115.5 -249.5t-154 -201.5t-186.5 -119l-136 764l-190 141l369 195l153 -901l-2 -8q105 98 166.5 256.5t63.5 302.5
q-5 28 -12.5 61.5t-21.5 96.5t-28 127h246l145 -836l-2 -8q78 71 134.5 190t77.5 229.5t18.5 200t-29.5 111.5l-123 100v13z" />
    <glyph glyph-name="Wacute" unicode="&#x1e82;" horiz-adv-x="2058" 
d="M1038 1780h256l-252 -264h-28zM1599 1403h408l-131 -176l-418 -1252h-119l-282 797l-279 -797h-119l-483 1307l-100 121h532l-157 -125l321 -899l19 -76l223 590l-142 393l-96 117h533l-160 -125l303 -899l23 -90l292 936z" />
    <glyph glyph-name="wacute" unicode="&#x1e83;" horiz-adv-x="1447" 
d="M842 1395h245l-251 -265h-31zM1155 1004h293q-8 -103 -36 -225t-78 -253t-114.5 -243.5t-152.5 -198t-184 -115.5l-101 570q-51 -137 -115.5 -249.5t-154 -201.5t-186.5 -119l-136 764l-190 141l369 195l153 -901l-2 -8q105 98 166.5 256.5t63.5 302.5q-5 28 -12.5 61.5
t-21.5 96.5t-28 127h246l145 -836l-2 -8q78 71 134.5 190t77.5 229.5t18.5 200t-29.5 111.5l-123 100v13z" />
    <glyph glyph-name="Wdieresis" unicode="&#x1e84;" horiz-adv-x="2058" 
d="M961 1698l-148 -180l-154 180l154 178zM1417 1698l-149 -180l-152 180l152 178zM1599 1403h408l-131 -176l-418 -1252h-119l-282 797l-279 -797h-119l-483 1307l-100 121h532l-157 -125l321 -899l19 -76l223 590l-142 393l-96 117h533l-160 -125l303 -899l23 -90l292 936
z" />
    <glyph glyph-name="wdieresis" unicode="&#x1e85;" horiz-adv-x="1447" 
d="M772 1274l-125 -158l-127 158l127 156zM1151 1274l-125 -158l-127 158l127 156zM1155 1004h293q-8 -103 -36 -225t-78 -253t-114.5 -243.5t-152.5 -198t-184 -115.5l-101 570q-51 -137 -115.5 -249.5t-154 -201.5t-186.5 -119l-136 764l-190 141l369 195l153 -901l-2 -8
q105 98 166.5 256.5t63.5 302.5q-5 28 -12.5 61.5t-21.5 96.5t-28 127h246l145 -836l-2 -8q78 71 134.5 190t77.5 229.5t18.5 200t-29.5 111.5l-123 100v13z" />
    <glyph glyph-name="Ygrave" unicode="&#x1ef2;" horiz-adv-x="1411" 
d="M768 1780l27 -264h-29l-252 264h254zM414 0l164 207v368l-347 611l-178 217h627l-166 -217h-2l229 -387l31 -68l256 459l-166 213h496l-201 -193l-326 -559v-444l164 -207h-581z" />
    <glyph glyph-name="ygrave" unicode="&#x1ef3;" horiz-adv-x="1056" 
d="M535 1395l36 -265h-30l-252 265h246zM694 51v463q-36 -95 -79 -178t-97.5 -159t-122.5 -130.5t-141 -77.5l-76 873l-168 162h379l66 -830q60 57 106.5 140.5t71 161.5t40 162t19.5 135t4 87v144h232v-850q0 -98 -39.5 -195.5t-105.5 -174t-147.5 -136.5t-169.5 -92.5
t-167 -32.5h-12l-228 278l13 15q85 -70 206.5 -120t188.5 -50q53 0 91.5 17.5t70 61t48 125.5t17.5 201z" />
    <glyph glyph-name="uni2009" unicode="&#x2009;" horiz-adv-x="368" 
 />
    <glyph glyph-name="endash" unicode="&#x2013;" horiz-adv-x="1024" 
d="M47 633h930v-135h-930v135z" />
    <glyph glyph-name="emdash" unicode="&#x2014;" horiz-adv-x="1843" 
d="M86 633h1671v-135h-1671v135z" />
    <glyph glyph-name="quoteleft" unicode="&#x2018;" horiz-adv-x="507" 
d="M356 1456l27 -20q-127 -110 -127 -213q0 -15 3 -28t10.5 -25t12 -18.5t16.5 -19t15 -16.5l76 -63l-162 -174q-57 37 -107 93.5t-50 104.5q0 190 278 373q6 4 8 6z" />
    <glyph glyph-name="quoteright" unicode="&#x2019;" horiz-adv-x="507" 
d="M102 879l-26 20q127 110 127 213q0 15 -3 28t-10.5 25t-12.5 18.5t-16.5 19t-15.5 16.5l-75 63l161 174q57 -37 107.5 -94t50.5 -105q0 -189 -278 -372q-7 -4 -9 -6z" />
    <glyph glyph-name="quotesinglbase" unicode="&#x201a;" horiz-adv-x="464" 
d="M102 -252l-26 21q127 110 127 213q0 19 -7 36.5t-11.5 24.5t-21.5 25t-18 20l-75 64l161 174q57 -37 107.5 -94t50.5 -105q0 -190 -278 -373q-7 -4 -9 -6z" />
    <glyph glyph-name="quotedblleft" unicode="&#x201c;" horiz-adv-x="870" 
d="M367 1456l26 -20q-127 -110 -127 -213q0 -13 3 -25t5.5 -19.5t11 -18.5t11 -14.5t14 -15.5t13.5 -14l75 -63l-161 -174q-58 36 -108 93t-50 105q0 190 278 373q2 2 3.5 2.5t3 1.5t2.5 2zM756 1456l26 -20q-125 -108 -125 -213q0 -15 2.5 -27.5t10.5 -25.5t12 -18.5
t16.5 -19.5t14.5 -16l75 -63l-161 -174q-58 38 -108 94.5t-50 103.5q0 190 278 373q2 2 3.5 2.5t3 1.5t2.5 2z" />
    <glyph glyph-name="quotedblright" unicode="&#x201d;" horiz-adv-x="870" 
d="M113 879l-27 20q125 108 125 213q0 15 -2.5 27.5t-10.5 26t-11 17.5t-17 20l-14 16l-76 63l162 174q57 -37 107 -94t50 -105q0 -190 -277 -372q-7 -4 -9 -6zM502 879l-27 20q127 110 127 213q0 11 -1.5 20.5t-5.5 19t-6.5 15.5t-10 15l-10 12t-12 13t-11.5 12l-76 63
l162 174q58 -36 107.5 -93.5t49.5 -105.5q0 -190 -277 -372q-7 -4 -9 -6z" />
    <glyph glyph-name="quotedblbase" unicode="&#x201e;" horiz-adv-x="874" 
d="M113 -250l-27 21q125 108 125 213q0 15 -2.5 27.5t-10.5 25t-11.5 18t-16 19.5t-14.5 16l-76 64l162 174q57 -37 107 -94t50 -105q0 -190 -278 -373q-6 -4 -8 -6zM502 -250l-27 21q127 110 127 213q0 13 -3 25t-5.5 19t-10.5 18.5t-10.5 14.5t-14.5 15t-13 14l-76 64
l162 174q58 -36 107.5 -93.5t49.5 -105.5q0 -190 -278 -373q-6 -4 -8 -6z" />
    <glyph glyph-name="dagger" unicode="&#x2020;" horiz-adv-x="757" 
d="M311 1004l-55 430h246l-56 -430h136l176 151v-233h-256v-181l-109 -905h-28l-109 905v181h-80l-176 -152v234h311z" />
    <glyph glyph-name="daggerdbl" unicode="&#x2021;" horiz-adv-x="757" 
d="M758 287h-312l56 -430h-246l55 430h-135l-176 -152v234h311v553h-135l-176 -152v234h311l-55 430h246l-56 -430h136l176 151v-233h-312v-553h136l176 151v-233z" />
    <glyph glyph-name="bullet" unicode="&#x2022;" horiz-adv-x="710" 
d="M606 539l-250 -283l-252 283l252 284z" />
    <glyph glyph-name="ellipsis" unicode="&#x2026;" horiz-adv-x="1521" 
d="M399 135l-166 -188l-167 188l167 189zM928 135l-166 -188l-168 188l168 189zM1456 135l-166 -188l-168 188l168 189z" />
    <glyph glyph-name="guilsinglleft" unicode="&#x2039;" horiz-adv-x="606" 
d="M569 57l-20 -20l-481 467l481 467l20 -35l-393 -432h174z" />
    <glyph glyph-name="guilsinglright" unicode="&#x203a;" horiz-adv-x="606" 
d="M45 950l21 21l481 -467l-481 -467l-21 35l393 432h-174z" />
    <glyph glyph-name="fraction" unicode="&#x2044;" horiz-adv-x="962" 
d="M0 -68l879 1541h90l-881 -1541h-88z" />
    <glyph glyph-name="zerosuperior" unicode="&#x2070;" horiz-adv-x="837" 
d="M739 1235q0 -78 -23 -154.5t-66 -141t-113 -104.5t-156 -40q-88 0 -154 54.5t-97.5 137t-31.5 178.5q0 62 14 124t43.5 119t71 101t100.5 70.5t128 26.5q89 0 155 -54.5t97.5 -137.5t31.5 -179zM387 1546q-121 0 -121 -237q0 -122 24 -225.5t67.5 -166.5t97.5 -63
q32 0 57 25.5t38 64.5t19 76.5t6 71.5q0 186 -54 320t-134 134z" />
    <glyph glyph-name="foursuperior" unicode="&#x2074;" horiz-adv-x="792" 
d="M735 1065h-178v-107l131 -86h-416l121 86v109h-336l332 582h199l-389 -523h192v105l166 231v-338h178v-59z" />
    <glyph glyph-name="fivesuperior" unicode="&#x2075;" horiz-adv-x="696" 
d="M174 1335l53 23q69 28 138 28q106 0 188 -66t82 -173q0 -135 -100 -205t-275 -70h-166q4 136 4 224h8q4 -7 10.5 -19.5t29 -44t47.5 -55.5t64 -44t79 -20q69 0 101 38t32 145q0 35 -2.5 63t-11.5 63t-25 58t-46 39t-71 16q-77 0 -155 -61l-4 -23h-48l56 371l4 25h389
l80 65l-12 -65l-37 -156h-383z" />
    <glyph glyph-name="sixsuperior" unicode="&#x2076;" horiz-adv-x="727" 
d="M600 1673l8 -33q-290 -111 -356 -342q98 50 149 50q103 0 172.5 -61t69.5 -169q0 -97 -84.5 -176.5t-222.5 -79.5q-120 0 -196.5 70.5t-76.5 189.5q0 118 74 227t192 188t271 136zM242 1253q-13 -53 -13 -125q0 -105 38 -164t98 -59q32 0 56.5 20t36.5 51t17.5 59.5
t5.5 54.5q0 94 -46 149t-101 55q-41 0 -92 -41z" />
    <glyph glyph-name="sevensuperior" unicode="&#x2077;" horiz-adv-x="741" 
d="M86 1642h569l-442 -794l-55 20l327 619h-329l-66 -94h-4v249z" />
    <glyph glyph-name="eightsuperior" unicode="&#x2078;" horiz-adv-x="743" 
d="M387 1677q50 0 99 -16.5t85.5 -53t36.5 -85.5q0 -58 -34 -98t-95 -76q37 -23 55 -35.5t47 -37t43.5 -46t26 -53.5t11.5 -68q0 -53 -22.5 -96t-57 -70t-78 -46t-83 -26.5t-73.5 -7.5q-117 0 -191.5 53t-74.5 138q0 18 3.5 34.5t7.5 30t13.5 27.5t15.5 23t20 21.5
t20.5 18.5t23.5 17t22 14.5t23 14t21 12.5q-70 57 -90 80q-47 56 -47 127q0 67 42.5 115t102.5 68.5t127 20.5zM449 1362q67 47 67 143q0 68 -42 101.5t-99 33.5t-97 -32t-40 -90q0 -23 10.5 -41.5t37 -36t44 -26.5t61.5 -27.5t58 -24.5zM291 1249q-49 -30 -83 -79.5
t-34 -110.5q0 -67 44.5 -113.5t131.5 -46.5q77 0 126.5 37t49.5 108q0 24 -6 44.5t-14 35.5t-24.5 29.5t-29.5 23.5t-37 20.5t-38.5 17.5t-43 17t-42.5 17z" />
    <glyph glyph-name="ninesuperior" unicode="&#x2079;" horiz-adv-x="727" 
d="M127 858l-8 33q297 111 366 342q-100 -49 -153 -49q-107 0 -178.5 60.5t-71.5 168.5q0 97 87.5 176.5t229.5 79.5q123 0 202 -70.5t79 -189.5q0 -175 -155 -319t-398 -232zM496 1278q12 49 12 125q0 105 -38.5 164t-100.5 59q-33 0 -58 -20t-38 -50.5t-19 -59.5t-6 -54
q0 -94 48 -149.5t105 -55.5q44 0 95 41z" />
    <glyph glyph-name="oneeighth" unicode="&#x215b;" horiz-adv-x="1568" 
d="M326 -68l878 1541h90l-880 -1541h-88zM457 1403v-709l131 -86h-416l121 86v467l-133 -47l-2 2zM1225 795q-67 0 -127.5 -21t-103 -69t-42.5 -115q0 -15 2.5 -29.5t5 -26t9.5 -24.5t11 -21t15 -20.5t16 -18t19 -17.5t18.5 -16t21 -17.5t20.5 -16.5q-3 -2 -21 -12.5
t-23 -14t-22 -14.5t-23.5 -17t-20.5 -18.5t-20 -21.5t-15.5 -23t-13.5 -27.5t-7.5 -30t-3.5 -34.5q0 -84 74.5 -137t191.5 -53q34 0 73.5 7.5t82.5 26t77.5 45.5t57 70t22.5 96q0 36 -11.5 68t-25.5 53.5t-43 46t-47.5 37t-54.5 35.5q61 36 95 76t34 98q0 49 -36.5 86
t-85.5 53.5t-99 16.5zM1286 479q-14 6 -58 24.5t-61.5 27.5t-44 26.5t-37 36t-10.5 41.5q0 58 40.5 90.5t96.5 32.5q57 0 99.5 -33.5t42.5 -101.5q0 -97 -68 -144zM1128 367q14 -6 42.5 -17t43.5 -17t39 -17.5t37 -20.5t29.5 -23.5t24.5 -29.5t14 -35.5t6 -44.5
q0 -71 -49.5 -108.5t-126.5 -37.5q-87 0 -131.5 46.5t-44.5 113.5q0 61 34 111t82 80z" />
    <glyph glyph-name="threeeighths" unicode="&#x215c;" horiz-adv-x="1613" 
d="M315 -68l879 1541h90l-881 -1541h-88zM127 606l-10 39q57 0 115.5 9.5t115.5 29t93 56t36 85.5q0 80 -60.5 120.5t-168.5 60.5q-6 -1 -20 -4.5t-23 -4.5l-4 23l47 14q122 43 169 73q81 52 81 120q0 62 -46 98.5t-122 36.5q-37 0 -66 -14t-52 -42.5t-37.5 -55t-33.5 -68.5
h-6v221h213q96 0 168 -14t120 -50.5t48 -93.5q0 -63 -74.5 -111t-232.5 -92q58 -4 108 -14t101 -28.5t80.5 -52t29.5 -77.5q0 -53 -45.5 -99t-113 -75.5t-147.5 -50.5t-148 -30t-115 -9zM1253 795q-67 0 -127 -21t-102.5 -69t-42.5 -115q0 -35 9 -63t29 -52.5t37 -39.5
t47 -40l15 -12q-3 -2 -21 -12.5t-23 -14t-22 -14.5t-23.5 -17t-20.5 -18.5t-20 -21.5t-15.5 -23t-13.5 -27.5t-7.5 -30t-3.5 -34.5q0 -84 74.5 -137t191.5 -53q34 0 73.5 7.5t83 26t78 45.5t57 70t22.5 96q0 36 -11.5 68t-25.5 53.5t-43 46t-47.5 37t-54.5 35.5q61 36 95 76
t34 98q0 49 -36.5 86t-86 53.5t-99.5 16.5zM1315 479q-14 6 -58 24.5t-61.5 27.5t-44 26.5t-37 36t-10.5 41.5q0 58 40 90.5t97 32.5t99 -33.5t42 -101.5q0 -97 -67 -144zM1157 367q14 -6 42.5 -17t43.5 -17t39 -17.5t37 -20.5t29.5 -23.5t24.5 -29.5t14 -35.5t6 -44.5
q0 -71 -49.5 -108.5t-126.5 -37.5q-87 0 -132 46.5t-45 113.5q0 61 34 111t83 80z" />
    <glyph glyph-name="fiveeighths" unicode="&#x215d;" horiz-adv-x="1570" 
d="M291 -68l878 1541h91l-881 -1541h-88zM174 1092l53 22q71 29 138 29q106 0 188 -66.5t82 -173.5q0 -135 -100 -204.5t-275 -69.5h-166q4 135 4 223h8q4 -7 10.5 -19.5t29 -44t47.5 -55.5t64 -43.5t79 -19.5q69 0 101 37.5t32 144.5q0 35 -2.5 63t-11.5 63t-25 58.5
t-46 39.5t-71 16q-76 0 -155 -62l-4 -22h-48l56 370l4 25h389l80 65l-12 -65l-37 -156h-383zM1307 465q36 -23 54.5 -35.5t47.5 -37t43 -46t25.5 -53.5t11.5 -68q0 -53 -22.5 -96t-57 -70t-77.5 -45.5t-82.5 -26t-73.5 -7.5q-117 0 -192 53t-75 137q0 18 3.5 34.5t7.5 30
t13.5 27.5t15.5 23t20 21.5t20.5 18.5t23.5 17t22 14.5t23 14t21 12.5q-70 57 -90 80q-47 55 -47 127q0 67 42.5 115t102.5 69t127 21q50 0 99.5 -16.5t86 -53.5t36.5 -86q0 -58 -34 -98t-95 -76zM1065 635q0 -23 10.5 -41.5t37 -36t44 -26.5t61.5 -27.5t58 -24.5
q67 47 67 144q0 68 -42 101.5t-99 33.5q-56 0 -96.5 -32.5t-40.5 -90.5zM1178 16q77 0 126.5 37.5t49.5 108.5q0 24 -6 44.5t-14 35.5t-24.5 29.5t-29.5 23.5t-37 20.5t-39 17.5t-43.5 17t-42.5 17q-49 -30 -83 -80t-34 -111q0 -67 45 -113.5t132 -46.5z" />
    <glyph glyph-name="seveneighths" unicode="&#x215e;" horiz-adv-x="1576" 
d="M227 -68l879 1541h90l-881 -1541h-88zM201 1403h569l-442 -795l-56 21l328 618h-330l-65 -94h-4v250zM1196 795q-67 0 -127 -21t-102.5 -69t-42.5 -115q0 -35 9 -63t29 -52.5t37 -39.5t47 -40l15 -12q-3 -2 -21 -12.5t-23 -14t-22 -14.5t-23.5 -17t-20.5 -18.5t-20 -21.5
t-15.5 -23t-13.5 -27.5t-7.5 -30t-3.5 -34.5q0 -84 74.5 -137t191.5 -53q34 0 73.5 7.5t82.5 26t77.5 45.5t57 70t22.5 96q0 36 -11.5 68t-25.5 53.5t-43 46t-47.5 37t-54.5 35.5q61 36 95 76t34 98q0 72 -70.5 114t-150.5 42zM1257 479q-16 7 -49.5 21t-50.5 22t-41.5 21.5
t-37 25.5t-22 29.5t-9.5 36.5q0 58 40.5 90.5t96.5 32.5q57 0 99 -33.5t42 -101.5q0 -97 -68 -144zM1100 367q14 -6 42.5 -17t43 -17t38.5 -17.5t37 -20.5t29.5 -23.5t24.5 -29.5t14 -35.5t6 -44.5q0 -71 -49.5 -108.5t-126.5 -37.5q-87 0 -131.5 46.5t-44.5 113.5
q0 61 34 111t83 80z" />
    <glyph glyph-name="heartsuitblack" unicode="&#x2665;" horiz-adv-x="2048" 
d="M932 -111q-68 89 -155 178.5t-162 157t-153.5 140t-139.5 140.5t-110.5 143.5t-76 165t-26.5 190.5q0 208 108.5 313.5t290.5 105.5q79 0 145.5 -23t109.5 -56t78.5 -81.5t54.5 -88t36 -87.5q17 48 36 87.5t54.5 88t78.5 81.5t109.5 56t145.5 23q182 0 290.5 -105.5
t108.5 -313.5q0 -101 -26.5 -190.5t-76 -165t-110.5 -143.5t-139.5 -140.5t-153.5 -140t-162 -157t-155 -178.5z" />
    <glyph glyph-name="zero.osf" horiz-adv-x="1222" 
d="M1118 590q0 -86 -22 -172.5t-68.5 -166.5t-112 -141t-159.5 -98t-203 -37q-105 0 -191.5 44.5t-142 118t-85.5 166.5t-30 192q0 86 22 172.5t69 166t112.5 141t159.5 98t203 36.5q85 0 158 -29t125.5 -78.5t90 -116t56 -142t18.5 -154.5zM555 1028q-50 0 -88.5 -22.5
t-60.5 -56.5t-35.5 -81t-18 -88.5t-4.5 -85.5q0 -170 40.5 -315t115 -233.5t166.5 -88.5q56 0 99 35.5t65.5 90t33.5 108t11 100.5q0 170 -41 315t-116 233.5t-167 88.5z" />
    <glyph glyph-name="one.osf" horiz-adv-x="782" 
d="M512 1108v-973l184 -135h-592l175 135v533l-191 -17l-2 4z" />
    <glyph glyph-name="two.osf" horiz-adv-x="1071" 
d="M111 0l-17 68q19 15 69.5 55t84 67.5t86.5 75.5t89.5 88.5t78.5 97.5t67.5 111t42.5 120.5t17 133.5q0 100 -57.5 162.5t-157.5 62.5q-99 0 -164.5 -75t-120.5 -224h-10v355h266q100 0 189.5 -19.5t161.5 -57.5t114.5 -100t42.5 -141q0 -38 -17 -78.5t-40.5 -75
t-67.5 -77t-77.5 -71t-91.5 -70.5t-89.5 -63t-92.5 -60.5t-79 -51.5l2 -6l121 11l526 6l-22 -244h-854z" />
    <glyph glyph-name="three.osf" 
d="M119 1098h301q101 0 184 -13t150.5 -40.5t105 -76.5t37.5 -116q0 -100 -102.5 -177t-313.5 -143q48 -5 92.5 -13t96 -21.5t93.5 -34.5t77.5 -48.5t55 -67.5t19.5 -87q0 -70 -45 -132.5t-118 -106t-161.5 -78.5t-180 -55.5t-168.5 -31t-133 -10.5l-17 52q63 0 129.5 9
t136.5 31.5t124 54.5t89 83.5t35 113.5q0 65 -25 114.5t-72 82t-102 53t-128 35.5q-10 -2 -31 -7t-31 -7l-4 35l66 24q151 57 216 98q138 87 138 205q0 98 -65.5 157.5t-172.5 59.5q-42 0 -78 -17t-61.5 -41.5t-50.5 -67t-40 -77t-36 -87.5h-10v348z" />
    <glyph glyph-name="four.osf" horiz-adv-x="1163" 
d="M1057 -2h-250v-152h-234v152h-477l469 1100h285l-563 -1006h288v230l232 299v-529h250v-94z" />
    <glyph glyph-name="five.osf" horiz-adv-x="985" 
d="M211 606l70 39q94 43 196 43q94 0 181.5 -44.5t146.5 -132.5t59 -198q0 -213 -143.5 -323.5t-394.5 -110.5h-236q4 215 8 352h15q5 -12 14 -32t40.5 -70.5t66 -89t89 -70.5t111.5 -32q48 0 81 12.5t59 44t38.5 89.5t12.5 146q0 45 -2.5 82.5t-10 84t-23 81.5t-38.5 65.5
t-60 47t-85 16.5q-77 0 -205 -69l-6 -45l-70 8l70 598h647l-51 -246h-545z" />
    <glyph glyph-name="six.osf" horiz-adv-x="1030" 
d="M905 1292l13 -39q-199 -94 -348 -251t-199 -349q121 86 211 86q147 0 246.5 -96t99.5 -266q0 -70 -30.5 -140.5t-84.5 -129t-138 -95.5t-183 -37q-169 0 -279.5 113t-110.5 307q0 137 66.5 274.5t179.5 252.5t255.5 210t301.5 160zM358 602q-20 -90 -20 -209
q0 -171 49 -263.5t143 -92.5q45 0 80 32.5t53 81.5t26.5 96t8.5 87q0 147 -66.5 234t-144.5 87q-43 0 -70 -11t-59 -42z" />
    <glyph glyph-name="seven.osf" horiz-adv-x="989" 
d="M928 1098l-672 -1301l-66 33l504 1022h-497l-105 -150v396h836z" />
    <glyph glyph-name="eight.osf" horiz-adv-x="1013" 
d="M522 1249q53 0 102.5 -15t91.5 -44t67.5 -79t25.5 -114q0 -90 -42 -152.5t-122 -113.5q45 -23 80.5 -46.5t70 -57t57 -71.5t36.5 -90t14 -112q0 -83 -32 -150.5t-81 -110t-111 -71.5t-119.5 -41t-108.5 -12q-160 0 -258.5 81t-98.5 218q0 49 15 95t36.5 78.5t55.5 65.5
t60 52.5t61 42.5q-61 32 -101 71t-66 103.5t-26 151.5q0 81 35.5 145t94 101t125.5 56t138 19zM602 754q133 91 133 219q0 113 -64.5 169t-164.5 56q-83 0 -143 -52t-60 -149q0 -30 13.5 -57t31 -45.5t52 -39.5t59.5 -33t72 -34t71 -34zM377 575q-83 -49 -146 -127t-63 -172
q0 -103 75.5 -179.5t209.5 -76.5q117 0 189.5 61t72.5 175q0 37 -8.5 69t-20.5 56t-35.5 46.5t-42 37t-53 32t-55.5 26.5t-62 26t-61 26z" />
    <glyph glyph-name="nine.osf" horiz-adv-x="1017" 
d="M111 -211l-13 39q199 94 348 251t199 349q-121 -86 -211 -86q-147 0 -246.5 96.5t-99.5 266.5q0 70 30.5 140.5t84.5 129t138 95t183 36.5q169 0 279 -113t110 -307q0 -137 -66.5 -274.5t-179 -252.5t-255 -210t-301.5 -160zM657 479q21 95 21 209q0 170 -49.5 263
t-143.5 93q-45 0 -80 -32.5t-53 -81.5t-26.5 -95.5t-8.5 -86.5q0 -147 66.5 -234.5t144.5 -87.5q43 0 70 11t59 42z" />
    <glyph glyph-name="exclamdown.case" horiz-adv-x="444" 
d="M55 1243l166 189l168 -189l-168 -190zM266 928l96 -895l-131 -94l-129 94l95 895h69z" />
    <glyph glyph-name="questiondown.case" horiz-adv-x="1032" 
d="M682 811l-166 190l166 189l166 -189zM924 -287h-168q-67 0 -122.5 3t-119 11t-113.5 22.5t-98 38.5t-79.5 57t-50.5 80t-19 106q0 63 28 119.5t68.5 95.5t98.5 76t106 58.5t104.5 46.5t79.5 38l23 221h47l34 -250q-132 -48 -212 -150t-80 -210q0 -287 151 -287
q104 0 162.5 71t95.5 201l17 2z" />
    <glyph glyph-name="braceleft.case" horiz-adv-x="643" 
d="M131 707v-9q6 -4 31.5 -17.5t51 -27.5t57 -42t55.5 -60t40.5 -82.5t16.5 -108.5q0 -48 -19.5 -121.5t-19.5 -146.5q0 -124 41.5 -190t120.5 -66v-43q-155 0 -234 75.5t-79 248.5q0 42 20 143.5t20 151.5q0 139 -98 221q-33 25 -82 39v61q49 14 82 39q98 82 98 221
q0 51 -20 152t-20 143q0 174 79.5 249t235.5 75v-43q-81 0 -122.5 -66t-41.5 -190q0 -73 19.5 -147t19.5 -122q0 -58 -16.5 -108.5t-40.5 -82.5t-55.5 -59.5t-57 -42t-51 -27.5t-31.5 -17z" />
    <glyph glyph-name="braceright.case" horiz-adv-x="643" 
d="M512 698v9q-6 4 -31.5 17t-51 27.5t-57 42t-55.5 59.5t-40.5 82.5t-16.5 108.5q0 48 19.5 122t19.5 147q0 124 -41.5 190t-120.5 66v43q155 0 234.5 -75.5t79.5 -248.5q0 -42 -20.5 -143t-20.5 -152q0 -139 98 -221q33 -25 82 -39v-61q-49 -14 -82 -39q-98 -82 -98 -221
q0 -50 20.5 -151.5t20.5 -143.5q0 -173 -80 -248.5t-236 -75.5v43q81 0 122.5 66t41.5 190q0 73 -19.5 146.5t-19.5 121.5q0 58 16.5 108.5t40.5 82.5t55.5 60t57 42t51 27.5t31.5 17.5z" />
    <glyph glyph-name="bracketleft.case" horiz-adv-x="485" 
d="M403 1499h-260v-1575h260v-114h-370v1783h370v-94z" />
    <glyph glyph-name="bracketright.case" horiz-adv-x="485" 
d="M342 -96v1595h-260v94h371v-1783h-371v94h260z" />
    <glyph glyph-name="parenleft.case" horiz-adv-x="593" 
d="M553 1624l29 -31q-186 -199 -279.5 -410.5t-93.5 -480.5t93.5 -481t279.5 -409l-29 -31q-141 128 -208 206q-214 251 -245 587q-6 63 -6 128q0 75 8.5 145.5t20 127.5t34.5 115.5t41.5 100t52.5 91.5t55.5 79t62.5 74.5t60.5 65.5t64 63.5t59.5 59.5z" />
    <glyph glyph-name="parenright.case" horiz-adv-x="593" 
d="M12 1593l29 31q15 -16 59.5 -59.5t64 -63.5t60.5 -65.5t62.5 -74.5t55.5 -79t52.5 -91.5t41.5 -100t34.5 -115.5t20 -127.5t8.5 -145.5q0 -105 -15.5 -201t-40 -171t-62.5 -146t-75 -123t-86 -105.5t-87 -89.5t-87 -80q-4 -3 -6 -5l-29 31q186 197 279.5 409t93.5 481
t-93.5 480.5t-279.5 410.5z" />
    <glyph glyph-name="emdash.case" horiz-adv-x="1843" 
d="M86 770h1671v-135h-1671v135z" />
    <glyph glyph-name="endash.case" horiz-adv-x="1024" 
d="M47 770h930v-135h-930v135z" />
    <glyph glyph-name="hyphen.case" horiz-adv-x="602" 
d="M84 780h457v-155h-457v155z" />
    <glyph glyph-name="softhyphen.case" horiz-adv-x="913" 
d="M53 770h807v-135h-807v135z" />
    <glyph glyph-name="guillemotleft.case" horiz-adv-x="1048" 
d="M551 256l-21 -20l-481 466l481 467l21 -34l-393 -433h174zM981 256l-18 -20l-484 466l484 467l18 -34l-391 -433h172z" />
    <glyph glyph-name="guillemotright.case" horiz-adv-x="1048" 
d="M90 1149l19 20l483 -467l-483 -466l-19 34l391 432h-172zM520 1149l21 20l481 -467l-481 -466l-21 34l393 432h-174z" />
    <glyph glyph-name="guilsinglleft.case" horiz-adv-x="606" 
d="M535 256l-21 -20l-481 466l481 467l21 -34l-394 -433h174z" />
    <glyph glyph-name="guilsinglright.case" horiz-adv-x="606" 
d="M78 1149l20 20l482 -467l-482 -466l-20 34l393 432h-174z" />
    <glyph glyph-name="at.case" horiz-adv-x="1449" 
d="M684 270l96 281q-87 -109 -180 -184.5t-174 -75.5q-68 0 -110 42t-42 140q0 101 51.5 203t133 179t190 122.5t215.5 38.5l78 -6l174 10l-203 -602l97 -53l256 22q53 119 53 244q0 161 -79.5 298t-216.5 216.5t-298 79.5t-298 -79.5t-216.5 -216.5t-79.5 -298t79.5 -298
t216.5 -216.5t298 -79.5q129 0 243.5 53t198.5 146l41 -41q-91 -100 -217 -157.5t-266 -57.5q-133 0 -253.5 52t-208 139.5t-139.5 208t-52 253.5t52 253.5t139.5 208t208 139.5t253.5 52t253.5 -52t208 -139.5t139.5 -208t52 -253.5q0 -163 -78 -303zM809 643l115 318
q-119 14 -228.5 -32t-175 -134.5t-65.5 -192.5q0 -72 26 -99.5t86 -27.5q53 0 125.5 51.5t116.5 116.5z" />
    <glyph glyph-name="z.ss01" horiz-adv-x="911" 
d="M281 227h577l-41 -227h-780l610 776h-387l-115 -149l-12 4l19 389l96 -16h616l10 -19z" />
    <glyph glyph-name="zero.osf.zero" horiz-adv-x="1222" 
d="M670 1110q85 0 158 -29t125.5 -78.5t90 -116t56 -142t18.5 -154.5q0 -86 -22 -172.5t-68.5 -166.5t-112 -141t-159.5 -98t-203 -37q-105 0 -191.5 44.5t-142 118t-85.5 166.5t-30 192q0 86 22 172.5t69 166t112.5 141t159.5 98t203 36.5zM416 295l362 561
q-44 82 -101.5 127t-123.5 45q-50 0 -88.5 -22.5t-60.5 -56.5t-35.5 -81t-18 -88.5t-4.5 -85.5q0 -226 70 -399zM807 793l-363 -564q42 -81 100 -126.5t124 -45.5q56 0 99 35.5t66 90t34.5 108t11.5 100.5q0 224 -72 402z" />
    <glyph glyph-name="zero.zero" horiz-adv-x="1136" 
d="M621 1233q78 0 145.5 -31.5t116.5 -87t84 -128.5t52 -157.5t17 -173.5q0 -97 -20.5 -193t-63.5 -184.5t-104 -157t-148 -109t-188 -40.5q-128 0 -224.5 84t-144 213.5t-47.5 280.5q0 97 20.5 193t64 184.5t104 157t148 109t188.5 40.5zM406 303l290 674q-76 164 -180 164
q-54 0 -91 -35.5t-54.5 -95.5t-24 -116.5t-6.5 -121.5q0 -265 66 -469zM725 901l-289 -674q72 -164 178 -164q48 0 84.5 39t56 99t29 119t9.5 112q0 268 -68 469z" />
    </font>
</defs>
</svg>
